<svg width="60" height="69" viewBox="0 0 60 69" fill="none" xmlns="http://www.w3.org/2000/svg">
<path d="M21.372 45.176L9.052 21.46L5.18 41.788C4.94533 43.02 5.41467 43.856 6.588 44.296L7.336 44.56L7.292 45H0.912L1 44.56L1.968 44.208C2.55467 43.9733 3.00933 43.68 3.332 43.328C3.684 42.9467 3.91867 42.4333 4.036 41.788L8.26 19.48L7.732 18.38C7.35067 17.588 6.764 16.972 5.972 16.532L5.84 16.4L5.928 15.96H12.704L24.056 37.344L27.532 18.952C27.7373 17.8373 27.312 17.0747 26.256 16.664L25.552 16.4L25.64 15.96H31.624L31.58 16.4L30.656 16.708C30.0987 16.9133 29.644 17.2067 29.292 17.588C28.9693 17.94 28.7493 18.424 28.632 19.04L23.704 45.176H21.372ZM43.9911 45.792C41.2338 45.792 38.8431 45.2933 36.8191 44.296C34.7951 43.2693 33.2258 41.8027 32.1111 39.896C31.0258 37.96 30.4831 35.628 30.4831 32.9C30.4831 30.4653 30.8938 28.1773 31.7151 26.036C32.5658 23.8947 33.7538 22.0173 35.2791 20.404C36.8338 18.7613 38.6524 17.4853 40.7351 16.576C42.8471 15.6373 45.1644 15.168 47.6871 15.168C49.1831 15.168 50.5911 15.3293 51.9111 15.652C53.2604 15.9747 54.6244 16.5173 56.0031 17.28L54.9471 24.056H54.5071L53.0111 19.392C52.6298 18.1307 52.0284 17.2653 51.2071 16.796C50.4151 16.2973 49.3591 16.048 48.0391 16.048C45.7804 16.048 43.8004 16.7667 42.0991 18.204C40.4271 19.612 39.1218 21.592 38.1831 24.144C37.2444 26.6667 36.7751 29.6 36.7751 32.944C36.7751 36.6107 37.4791 39.5293 38.8871 41.7C40.3244 43.8413 42.3631 44.912 45.0031 44.912C46.1471 44.912 47.0711 44.692 47.7751 44.252C48.5084 43.812 49.1538 43.1373 49.7111 42.228L52.9671 36.948H53.4071L52.3511 43.636C51.2071 44.2813 49.9751 44.7947 48.6551 45.176C47.3644 45.5867 45.8098 45.792 43.9911 45.792Z" fill="#EF4800"/>
</svg>
