<?xml version="1.0" encoding="UTF-8"?>
<svg id="OBJECTS" xmlns="http://www.w3.org/2000/svg" xmlns:xlink="http://www.w3.org/1999/xlink" viewBox="0 0 500 500">
  <defs>
    <style>
      .cls-1 {
        fill: #4d5160;
      }

      .cls-1, .cls-2, .cls-3, .cls-4, .cls-5, .cls-6, .cls-7, .cls-8, .cls-9, .cls-10, .cls-11, .cls-12, .cls-13, .cls-14, .cls-15, .cls-16, .cls-17, .cls-18 {
        stroke-width: 0px;
      }

      .cls-2 {
        fill: #e58361;
      }

      .cls-3 {
        fill: #f7a152;
      }

      .cls-4 {
        fill: #93c685;
      }

      .cls-5 {
        fill: #cc7732;
      }

      .cls-6 {
        fill: #fca586;
      }

      .cls-7 {
        fill: none;
      }

      .cls-8 {
        fill: #83b26f;
      }

      .cls-9 {
        fill: #ffb266;
      }

      .cls-10 {
        fill: #6bb25d;
      }

      .cls-11 {
        fill: #ffe4ca;
      }

      .cls-19 {
        clip-path: url(#clippath);
      }

      .cls-12 {
        fill: #ffcc83;
      }

      .cls-13 {
        fill: #ffe1ab;
      }

      .cls-14 {
        fill: #ed9443;
      }

      .cls-15 {
        fill: #ffc088;
      }

      .cls-16 {
        fill: #74c65d;
      }

      .cls-17 {
        fill: #b55f1f;
      }

      .cls-18 {
        fill: #57a045;
      }
    </style>
    <clipPath id="clippath">
      <path class="cls-7" d="m415.42,250l-25.06,32.38c-.19.63-1.6,3.3-12.09,6.55-2.7.83-6.01,1.7-10.06,2.59-4.76,1.04-10.54,2.1-17.57,3.14-26.9,3.96-62.69,6.14-100.78,6.14s-73.87-2.18-100.77-6.14c-7.03-1.04-12.81-2.1-17.57-3.14-4.05-.89-7.36-1.76-10.06-2.59-10.24-3.17-11.83-5.8-12.08-6.5l-21.6-28.86s36.25-65.27,165.45-65.27,162.19,61.7,162.19,61.7Z"/>
    </clipPath>
  </defs>
  <g>
    <ellipse class="cls-2" cx="244.9" cy="423.25" rx="195.57" ry="26.58"/>
    <path class="cls-6" d="m434.51,101.33c-8.7,6.82-19.64,9.07-29.37,13.92-4.5,2.25-8.7,5.17-11.77,9.21-3.3,4.35-4.87,9.65-6.06,14.9-1.2,5.35-2.01,10.91-4.25,15.96-2.08,4.67-5.44,8.21-9.88,10.71-7.9,4.45-17.21,5.65-25.05,10.22-3.5,2.04-6.57,4.87-8.31,8.58-2.32,4.92-1.99,10.47.02,15.43,4.75,11.76,16.2,17.31,26.48,23.39,5.19,3.07,10.04,6.51,14.08,11.02,3.57,3.99,6.47,8.58,8.64,13.47,4.41,10,5.8,21.45,3.49,32.16-.45,2.1-1.06,4.17-1.79,6.2H107.25c.11-16.58,5.22-32.98,14.6-46.68,9.46-13.79,23.29-24.42,38.91-30.31,7.74-2.92,15.78-4.52,24.01-5.19,7.8-.62,15.64-.74,23.38-1.92,7.15-1.08,14.25-3.23,20.03-7.73,5.38-4.2,8.86-10.06,11.3-16.35,4.93-12.71,5.76-28.3,15.64-38.56,11.36-11.8,29.65-10.15,44.53-9.06,14.06,1.02,31.14,1.13,41.73-9.78,10.78-11.11,8.86-28.51,18.29-40.35,11.14-14,31.49-11.83,47.25-10.91,8.83.52,18.11.75,26.55-2.32,6.63-2.42,12.92-6.71,16.62-12.84,1-1.66,1.75-3.42,2.27-5.26,4.81,18.82-2.54,40.09-17.85,52.09Z"/>
    <circle class="cls-6" cx="171.6" cy="195.75" r="1.71"/>
    <circle class="cls-6" cx="150.15" cy="196.39" r="6.39"/>
    <circle class="cls-6" cx="164.82" cy="184.24" r="5.07"/>
    <circle class="cls-6" cx="403.64" cy="142.18" r="8.25"/>
    <circle class="cls-6" cx="393.33" cy="169.58" r="5.87"/>
    <circle class="cls-6" cx="413.94" cy="164.3" r="7.38"/>
    <circle class="cls-6" cx="386.12" cy="59.94" r="4.86"/>
    <circle class="cls-6" cx="403.96" cy="58.51" r="5"/>
    <circle class="cls-6" cx="404.61" cy="41.36" r="3.43"/>
    <circle class="cls-6" cx="394.97" cy="49.24" r="3.43"/>
    <circle class="cls-6" cx="336.27" cy="114.98" r="3.47"/>
  </g>
  <g>
    <path class="cls-9" d="m418.98,358.97v54.2c0,1.94-.31,6.01-11.06,10.56-.04.02-.09.04-.14.06-1.16.49-2.44.98-3.86,1.47-1.46.51-3.07,1.03-4.84,1.54-1.93.57-4.04,1.14-6.36,1.71-1.27.31-2.6.62-4,.93-5.79,1.28-12.68,2.54-20.9,3.75-31.53,4.64-73.41,7.19-117.95,7.19s-86.41-2.55-117.95-7.19c-9.02-1.32-16.44-2.71-22.56-4.13-1.4-.32-2.73-.64-4-.96-1.68-.44-3.24-.87-4.7-1.3-2.02-.58-3.85-1.17-5.48-1.76-1.16-.42-2.23-.83-3.21-1.25-.27-.11-.54-.23-.79-.34-.73-.32-1.39-.63-2.02-.94-.82-.4-1.56-.81-2.22-1.21-1.36-.8-2.42-1.58-3.24-2.32-.12-.1-.24-.22-.34-.32-.06-.05-.11-.08-.16-.15-.21-.21-.4-.42-.57-.61-.1-.12-.2-.24-.29-.35-.1-.12-.18-.23-.26-.34-.07-.11-.14-.19-.2-.3-.23-.33-.41-.66-.54-.98-.05-.09-.1-.19-.13-.29-.05-.1-.08-.2-.11-.29-.3-.84-.33-1.57-.33-2.12v-54.21c0,.56.03,1.29.33,2.13.03.09.06.18.11.29.03.09.08.2.13.29.13.31.31.64.54.97.06.12.13.2.2.31.08.11.16.22.26.33.09.12.19.24.29.35.17.2.36.41.57.62.05.06.1.1.16.15.1.1.22.22.34.32.82.74,1.88,1.52,3.24,2.32.66.4,1.4.8,2.22,1.21.85.41,1.78.85,2.81,1.27,2.36,1,5.23,2.01,8.69,3.01,7.36,2.18,17.44,4.36,31.26,6.4,7.42,1.09,15.41,2.07,23.87,2.92,27.52,2.78,60.02,4.27,94.08,4.27s66.58-1.5,94.09-4.27c8.46-.85,16.44-1.83,23.86-2.92,13.83-2.04,23.91-4.22,31.26-6.4,3.48-1.01,6.34-2.02,8.7-3.01,10.89-4.56,11.19-8.66,11.2-10.61Z"/>
    <path class="cls-15" d="m418.98,306.89v52.2c0,1.96-.31,6.05-11.2,10.62-2.36.99-5.22,2-8.7,3.01-1.27.37-2.61.75-4.04,1.13-1.26.32-2.6.65-4,.98-3.34.79-7.09,1.57-11.29,2.33-1.29.24-2.62.47-4,.71-2.49.42-5.13.84-7.93,1.25-1.74.26-3.5.5-5.3.75-1.32.17-2.65.35-4,.52-30.25,3.83-68.36,5.92-108.65,5.92-44.53,0-86.41-2.56-117.95-7.19-13.82-2.04-23.9-4.22-31.26-6.4-3.46-1-6.33-2.01-8.69-3.01-1.03-.42-1.96-.86-2.81-1.27-.82-.41-1.56-.81-2.22-1.21-1.36-.8-2.42-1.59-3.24-2.32-.12-.11-.24-.22-.34-.32-.06-.05-.11-.09-.16-.15-.21-.21-.4-.42-.57-.62-.1-.11-.2-.23-.29-.35-.1-.11-.18-.22-.26-.34-.07-.1-.14-.19-.2-.3-.23-.33-.41-.66-.54-.97-.05-.1-.1-.2-.13-.29-.05-.11-.08-.2-.11-.3-.3-.84-.33-1.56-.33-2.12v-52.2c0,.56.03,1.28.33,2.12.03.1.06.19.11.29.03.1.08.2.13.3.13.31.31.64.54.97.06.11.13.2.2.3.08.11.16.23.26.34.09.11.19.24.29.35.17.2.36.41.57.61.05.07.1.11.16.15.1.11.22.22.34.32.82.74,1.88,1.52,3.24,2.33.66.39,1.4.8,2.22,1.2.85.42,1.78.85,2.81,1.28,2.36,1,5.23,2.01,8.69,3.01,7.36,2.18,17.44,4.36,31.26,6.4,7.42,1.08,15.41,2.06,23.87,2.91,27.52,2.79,60.02,4.28,94.08,4.28s66.58-1.5,94.09-4.28c8.46-.85,16.44-1.83,23.86-2.91,13.83-2.04,23.91-4.22,31.26-6.4,3.48-1.01,6.34-2.02,8.7-3.01,10.89-4.57,11.19-8.66,11.2-10.62Z"/>
    <path class="cls-14" d="m418.98,306.73v.16c0,1.96-.31,6.05-11.2,10.62-2.36.99-5.22,2-8.7,3.01-7.35,2.18-17.43,4.36-31.26,6.4-7.42,1.08-15.4,2.06-23.86,2.91-27.51,2.78-60.02,4.28-94.09,4.28s-66.56-1.49-94.08-4.28c-3.99-.4-7.87-.83-11.64-1.29-1.35-.16-2.68-.32-4-.5-2.81-.36-5.56-.73-8.23-1.12-.56-.08-1.12-.17-1.67-.25-1.37-.21-2.71-.42-4-.63-3.69-.6-7.07-1.21-10.18-1.83-1.39-.27-2.73-.54-4-.82-4.39-.95-8.17-1.91-11.41-2.87-3.46-1-6.33-2.01-8.69-3.01-1.03-.43-1.96-.86-2.81-1.28-.82-.4-1.56-.81-2.22-1.2-1.36-.81-2.42-1.59-3.24-2.33-.12-.1-.24-.21-.34-.32-.06-.04-.11-.08-.16-.15-.21-.2-.4-.41-.57-.61-.1-.11-.2-.24-.29-.35-.1-.11-.18-.23-.26-.34-.07-.1-.14-.19-.2-.3-.23-.33-.41-.66-.54-.97-.05-.1-.1-.2-.13-.3-.05-.1-.08-.19-.11-.29-.3-.84-.33-1.56-.33-2.12v-.22c0-3.13,0-12.64,51.15-20.17,31.54-4.66,73.42-7.2,117.95-7.2s86.42,2.54,117.95,7.2c51.16,7.53,51.16,17.04,51.16,20.17Z"/>
    <g>
      <path class="cls-11" d="m351.37,264.88c-27.13-4-63.17-6.2-101.5-6.2s-74.36,2.2-101.5,6.2c-44.02,6.48-44.02,14.67-44.02,17.36v.19c0,.48.03,1.1.29,1.83.02.08.05.16.09.25.03.08.07.17.11.25.11.27.27.55.46.84.06.09.12.17.18.26.07.09.14.19.22.29.08.1.16.2.25.3.15.17.31.35.49.53.05.05.09.09.14.13.09.09.19.18.29.27.71.64,1.62,1.31,2.79,2,.57.34,1.21.69,1.91,1.04.73.36,1.53.73,2.42,1.1,2.03.86,4.5,1.73,7.48,2.59,6.33,1.87,15.01,3.75,26.9,5.5,27.14,3.99,63.18,6.19,101.5,6.19s74.37-2.2,101.5-6.19c11.9-1.75,20.58-3.63,26.91-5.5,2.99-.87,5.45-1.74,7.48-2.59,9.37-3.93,9.63-7.46,9.64-9.14v-.14c0-2.69,0-10.88-44.03-17.36Zm26.91,24.05c-2.7.83-6.01,1.7-10.06,2.59-4.76,1.04-10.54,2.1-17.57,3.14-26.9,3.96-62.69,6.14-100.78,6.14s-73.87-2.18-100.77-6.14c-7.03-1.04-12.81-2.1-17.57-3.14-4.05-.89-7.36-1.76-10.06-2.59-11.92-3.69-12.12-6.64-12.12-6.69,0-.06.45-6.63,39.75-12.41,26.9-3.96,62.69-6.15,100.77-6.15s73.88,2.19,100.78,6.15c39.3,5.78,39.75,12.35,39.75,12.41,0,.05-.2,3-12.12,6.69Z"/>
      <path class="cls-15" d="m390.4,282.24s-.2,3-12.12,6.69c-2.7.83-6.01,1.7-10.06,2.59-4.76-1.04-10.54-2.1-17.57-3.14-26.9-3.96-62.69-6.14-100.78-6.14s-73.87,2.18-100.77,6.14c-7.03,1.04-12.81,2.1-17.57,3.14-4.05-.89-7.36-1.76-10.06-2.59-11.92-3.69-12.12-6.64-12.12-6.69,0-.06.45-6.63,39.75-12.41,26.9-3.96,62.69-6.15,100.77-6.15s73.88,2.19,100.78,6.15c39.3,5.78,39.75,12.35,39.75,12.41Z"/>
    </g>
    <path class="cls-9" d="m395.4,282.24v18.56c0,2.69,0,10.88-44.03,17.36-27.13,4-63.17,6.2-101.5,6.2s-74.36-2.2-101.5-6.2c-44.02-6.48-44.02-14.67-44.02-17.36v-18.47c0,1.66.18,5.22,9.64,9.19,2.03.86,4.5,1.73,7.48,2.59,6.33,1.87,15.01,3.75,26.9,5.5,27.14,3.99,63.18,6.19,101.5,6.19s74.37-2.2,101.5-6.19c11.9-1.75,20.58-3.63,26.91-5.5,2.99-.87,5.45-1.74,7.48-2.59,9.64-4.04,9.64-7.66,9.64-9.28Z"/>
    <path class="cls-14" d="m95.18,388.24v36.8c-1.16-.42-2.23-.83-3.21-1.25-.27-.11-.54-.23-.79-.34v-35.21c0-2.58,4-2.57,4,0Z"/>
    <path class="cls-14" d="m109.36,407.42v21.64c-1.4-.32-2.73-.64-4-.96v-20.68c0-2.57,4-2.57,4,0Z"/>
    <path class="cls-14" d="m407.92,396.05v27.68s-.09.04-.14.06c-1.16.49-2.44.98-3.86,1.47v-29.21c0-2.58,4-2.57,4,0Z"/>
    <path class="cls-14" d="m392.72,407.54v20.97c-1.27.31-2.6.62-4,.93v-21.9c0-2.58,4-2.57,4,0Z"/>
    <path class="cls-9" d="m395.04,339.48v34.37c-1.26.32-2.6.65-4,.98v-35.35c0-2.58,4-2.57,4,0Z"/>
    <path class="cls-9" d="m379.75,339.58v37.58c-1.29.24-2.62.47-4,.71v-38.29c0-2.58,4-2.57,4,0Z"/>
    <path class="cls-9" d="m362.52,341.7v38.17c-1.32.17-2.65.35-4,.52v-38.69c0-2.57,4-2.57,4,0Z"/>
    <path class="cls-9" d="m126.25,326.04c1.29.21,2.63.42,4,.63v24.55c0,2.58-4,2.58-4,0v-25.18Z"/>
    <path class="cls-9" d="m112.07,323.39c1.27.28,2.61.55,4,.82v13.53c0,2.58-4,2.58-4,0v-14.35Z"/>
    <path class="cls-9" d="m144.15,328.54v13.09c0,2.58-4,2.58-4,0v-13.59c1.32.18,2.65.34,4,.5Z"/>
    <path class="cls-14" d="m238.03,389.86c-149.18,0-159.82-23.36-160.41-28.16-.24-1.92,1.12-3.67,3.04-3.9,1.79-.23,3.45.96,3.84,2.69.53,1.09,13.46,23.52,165.33,22.32,153.61-1.21,165-21.54,165.57-22.87.07-1.69,1.36-3.14,3.1-3.33,1.92-.22,3.66,1.16,3.88,3.08.1.85.05,3.12-2.46,5.96-7.59,8.58-39.78,23.14-170.03,24.17-4.04.03-8,.05-11.86.05Zm-153.47-29.03s0,0,0,0c0,0,0,0,0,0Zm0,0s0,0,0,0c0,0,0,0,0,0Zm330.86-.35s0,0,0,.01c0,0,0,0,0-.01Zm0-.01s0,0,0,0c0,0,0,0,0,0Zm0,0s0,0,0,0c0,0,0,0,0,0Z"/>
  </g>
  <g class="cls-19">
    <g>
      <path class="cls-9" d="m378.39,301.64c-.88.97-1.81,1.33-1.81,1.33,0,0-.93.37-1.83,1.29-.45.45-.9,1.04-1.26,1.79-.34.74-.56,1.65-.59,2.75-.04,2.19.79,3.64,1.65,4.59.87.95,1.75,1.38,1.75,1.38,0,0-4,2.22-7.41-3.4-18.01,4.92-34.78,2.01-48.04-2.89-16.54-6.12-34.8-6.12-51.34,0-13.26,4.9-30.02,7.81-48.04,2.89-4.53-1.75-7.41,3.4-7.41,3.4,0,0-.98-.22-1.98-1.07-1.01-.85-2.06-2.35-2.11-4.75-.03-1.2.21-2.18.57-2.97.35-.79.83-1.4,1.32-1.84.97-.89,1.92-1.18,1.92-1.18,0,0,.93-.29,1.93-1.12,1-.83,1.99-2.19,2.23-4.38,0-.16.03-.32.03-.48.09-2.05-.41-4.13-1.18-5.08-.78-1.01-1.64-1.49-1.64-1.49,0,0-.87-.49-1.63-1.57-.77-1.08-1.33-2.77-.8-5.11.63-2.33,1.9-3.56,3.11-4.15,1.18-.61,2.17-.62,2.17-.62,0,0,.99-.03,2.15-.56,1.14-.55,2.57-1.51,3.34-3.55.88-1.98.99-4.38.53-5.6-.43-1.19-1.1-1.91-1.1-1.91,0,0-.67-.72-1.06-2-.42-1.29-.36-3.07.91-5.14.16-.26.33-.5.5-.72.19-.21.38-.4.56-.58.38-.35.77-.63,1.15-.85.76-.45,1.5-.67,2.14-.77,1.28-.19,2.24.17,2.24.17,0,0,.95.32,2.24.25.64-.03,1.36-.17,2.1-.49.37-.16.74-.38,1.1-.65.4-.24.78-.56,1.16-.94.29-.29.61-.66.94-1.04.52-.64,1.01-1.35,1.19-1.83.27-.78.42-1.46.43-2.11.04-1.26-.3-2.2-.3-2.2,0,0-.36-.93-.24-2.27.13-1.31.86-2.95,2.83-4.39.97-.74,2-.99,2.86-1.13.88-.12,1.64-.03,2.27.13,1.27.33,2,.99,2,.99,0,0,.73.61,1.97,1.07,1.23.43,2.91.65,4.84-.31,2.01-.84,3.76-2.49,4.24-3.7.49-1.2.48-2.21.48-2.21,0,0,0-.98.59-2.14.58-1.16,1.78-2.52,4.07-3.23,2.33-.56,4.04.03,5.14.72,1.1.71,1.6,1.56,1.6,1.56,0,0,.51.83,1.55,1.58,1.06.78,2.63,1.48,4.81,1.14.13-.02.29-.05.44-.08,1.06-.2,2.44-.62,3.06-.99.7-.41,1.23-.94,1.63-1.44.78-1.01,1.03-1.97,1.03-1.97,0,0,.24-.96,1.08-1.98.42-.51.99-1.03,1.75-1.45.77-.43,1.73-.66,2.91-.7,2.36-.07,3.89.83,4.81,1.74.92.91,1.25,1.84,1.25,1.84,0,0,.33.94,1.21,1.91.88.96,2.3,1.94,4.53,2.01,1.12.04,2.88-.24,3.65-.51.77-.28,1.38-.69,1.86-1.12.83-.74,1.26-1.52,1.35-1.71l.03.02c.09-.19.52-.97,1.41-1.71.51-.43,1.16-.83,1.99-1.11.83-.29,1.82-.33,3-.15,2.35.37,3.7,1.53,4.42,2.59.72,1.1.85,2.11.85,2.11,0,0,.13.99.8,2.11.58.98,1.55,2.03,3.21,2.63.24.08.49.15.76.22,2.09.65,4.5.45,5.64-.18,1.14-.62,1.76-1.41,1.76-1.41,0,0,.62-.77,1.81-1.3,1.18-.53,2.98-.86,5.21.08,2.18,1.07,3.15,2.6,3.54,3.83.4,1.23.2,2.24.2,2.24,0,0-.17.99.11,2.25.14.63.39,1.33.83,2.01.38.61.94,1.14,1.65,1.7.1.08.2.16.31.24,1.74,1.27,4.09,1.84,5.35,1.67,1.25-.16,2.1-.67,2.1-.67,0,0,.85-.51,2.18-.6.66-.04,1.47-.02,2.28.3.81.31,1.68.86,2.54,1.73.42.43.78.87,1.05,1.3.25.45.44.89.56,1.31.26.85.3,1.63.24,2.27-.13,1.31-.65,2.14-.65,2.14,0,0-.5.82-.74,2.11-.11.64-.15,1.38,0,2.18.07.4.19.81.37,1.23.08.21.19.42.31.64.11.22.24.45.38.68,1.12,1.84,3.1,3.25,4.3,3.6,1.23.32,2.22.18,2.22.18,0,0,.99-.14,2.26.26,1.23.41,2.73,1.43,3.71,3.66.86,2.26.58,4.01-.04,5.2-.61,1.18-1.4,1.78-1.4,1.78,0,0-.78.61-1.41,1.73-.55,1.02-1.08,2.5-.69,4.39.03.14.07.29.11.45.48,2.14,1.95,4.14,3.02,4.84.89.57,1.72.78,1.97.84v.02s.99.16,2.06.93c1.04.77,2.24,2.15,2.47,4.53.26,2.38-.61,3.98-1.48,4.95Z"/>
      <path class="cls-3" d="m361.32,307.25s-.03,0-.05,0c-.7-.03-1.24-.61-1.21-1.31.04-.95.7-23.42-15.53-40.28-11.33-11.77-28.01-17.74-49.58-17.74-34.72,0-51.61,15.76-59.67,28.98-8.71,14.3-9.21,28.39-9.23,28.99-.02.7-.58,1.27-1.3,1.23-.7-.02-1.25-.6-1.23-1.3.02-.62.54-15.37,9.6-30.23,8.39-13.77,25.93-30.19,61.83-30.19,22.28,0,39.57,6.23,51.4,18.51,16.97,17.63,16.27,41.14,16.23,42.13-.03.68-.59,1.22-1.26,1.22Z"/>
      <path class="cls-3" d="m300.39,293.34c-2.68,7.82-9.4,7.82-12.08,0-5.22-15.23-9.71-36.54,6.04-36.54s11.27,21.3,6.04,36.54Z"/>
      <path class="cls-3" d="m277.39,294.43c.93,8.22-5.14,11.1-10.92,5.18-11.25-11.52-24.45-28.84-10.22-35.6,14.23-6.76,19.32,14.41,21.13,30.41Z"/>
      <path class="cls-3" d="m311.31,295.43c-.93,8.22,5.14,11.1,10.92,5.18,11.25-11.52,24.45-28.84,10.22-35.6-14.23-6.76-19.32,14.41-21.13,30.41Z"/>
      <path class="cls-3" d="m290.58,232.45c-.02-.88-.76-1.73-1.68-1.68-.9.04-1.7.74-1.68,1.68.05,3.02.11,6.04.16,9.06.02.88.76,1.73,1.68,1.68.9-.04,1.7-.74,1.68-1.68-.05-3.02-.11-6.04-.16-9.06Z"/>
      <path class="cls-3" d="m268.99,244.95c-.94-2.86-1.88-5.72-2.82-8.58-.27-.84-1.18-1.47-2.07-1.18-.83.27-1.47,1.18-1.18,2.07.94,2.86,1.88,5.72,2.82,8.58.27.84,1.18,1.47,2.07,1.18.83-.27,1.47-1.18,1.18-2.07Z"/>
      <path class="cls-3" d="m250.69,253.29c-1.92-2.5-3.83-5.01-5.75-7.51-.28-.36-.55-.65-1.01-.77-.4-.11-.94-.06-1.3.17-.69.44-1.18,1.56-.6,2.31,1.92,2.5,3.83,5.01,5.75,7.51.28.36.55.65,1.01.77.4.11.94.06,1.3-.17.69-.44,1.18-1.56.6-2.31Z"/>
      <path class="cls-3" d="m234.77,266.74c-2.5-1.72-5-3.44-7.49-5.15-.73-.5-1.9-.16-2.31.6-.45.86-.17,1.77.6,2.31,2.5,1.72,5,3.44,7.49,5.15.73.5,1.9.16,2.31-.6.45-.86.17-1.77-.6-2.31Z"/>
      <path class="cls-3" d="m224.99,286.43l-7.94-2.42c-.84-.26-1.87.31-2.07,1.18-.21.91.27,1.8,1.18,2.07,2.65.81,5.29,1.61,7.94,2.42.84.26,1.87-.31,2.07-1.18.21-.91-.27-1.8-1.18-2.07Z"/>
      <path class="cls-3" d="m221.12,303.88c-3.13.31-6,1.51-8.39,3.56-.67.58-.64,1.8,0,2.38.72.66,1.67.61,2.38,0,.12-.1.24-.2.36-.3.05-.04.1-.07.15-.11.26-.19.53-.37.8-.53.27-.17.55-.33.84-.47.14-.07.29-.14.43-.21.04-.02.48-.23.24-.11-.24.11.2-.08.25-.1.15-.06.3-.11.45-.16.3-.1.61-.2.92-.28.31-.08.62-.15.94-.21.15-.03.32-.08.48-.08-.49,0,.04,0,.15,0,.46-.04.86-.16,1.19-.49.29-.29.51-.77.49-1.19-.04-.84-.75-1.78-1.68-1.68Z"/>
      <path class="cls-3" d="m314.35,231.61c-.84-.19-1.89.25-2.07,1.18-.6,3.02-1.2,6.05-1.8,9.07-.17.86.25,1.86,1.18,2.07.84.19,1.89-.25,2.07-1.18.6-3.02,1.2-6.05,1.8-9.07.17-.86-.25-1.86-1.18-2.07Z"/>
      <path class="cls-3" d="m337.49,238.66c-.96-.22-1.73.29-2.07,1.18-1.26,3.27-2.52,6.55-3.78,9.82-.32.82.35,1.88,1.18,2.07.96.22,1.73-.29,2.07-1.18,1.26-3.27,2.52-6.55,3.78-9.82.32-.82-.35-1.88-1.18-2.07Z"/>
      <path class="cls-3" d="m356.08,252c-.67-.62-1.72-.67-2.38,0-2.46,2.48-4.93,4.96-7.39,7.44-.62.63-.67,1.77,0,2.38.67.62,1.72.67,2.38,0,2.46-2.48,4.93-4.96,7.39-7.44.62-.63.67-1.77,0-2.38Z"/>
      <path class="cls-3" d="m370.75,272.91c-.26-.81-1.19-1.5-2.07-1.18-3.28,1.21-6.55,2.41-9.83,3.62-.82.3-1.47,1.16-1.18,2.07.26.81,1.19,1.5,2.07,1.18,3.28-1.21,6.55-2.41,9.83-3.62.82-.3,1.47-1.16,1.18-2.07Z"/>
      <path class="cls-3" d="m375.06,294.29c-3.02.19-6.04.39-9.06.58-.88.06-1.73.73-1.68,1.68.04.86.74,1.74,1.68,1.68,3.02-.19,6.04-.39,9.06-.58.88-.06,1.73-.73,1.68-1.68-.04-.86-.74-1.74-1.68-1.68Z"/>
      <path class="cls-3" d="m347.42,307.58c-2.17,0-2.17,3.37,0,3.37s2.17-3.37,0-3.37Z"/>
      <path class="cls-3" d="m353.82,305.55c-2.17,0-2.17,3.37,0,3.37s2.17-3.37,0-3.37Z"/>
      <path class="cls-3" d="m350.86,300.87c-2.17,0-2.17,3.37,0,3.37s2.17-3.37,0-3.37Z"/>
      <path class="cls-3" d="m234.07,294.15c-2.17,0-2.17,3.37,0,3.37s2.17-3.37,0-3.37Z"/>
      <path class="cls-3" d="m232.2,303.21c-2.17,0-2.17,3.37,0,3.37s2.17-3.37,0-3.37Z"/>
      <path class="cls-3" d="m240.94,306.95c-2.17,0-2.17,3.37,0,3.37s2.17-3.37,0-3.37Z"/>
      <path class="cls-3" d="m241.57,297.74c-2.17,0-2.17,3.37,0,3.37s2.17-3.37,0-3.37Z"/>
      <path class="cls-3" d="m264.36,255.43c-2.17,0-2.17,3.37,0,3.37s2.17-3.37,0-3.37Z"/>
      <path class="cls-3" d="m273.42,251.06c-2.17,0-2.17,3.37,0,3.37s2.17-3.37,0-3.37Z"/>
      <path class="cls-3" d="m272.17,257.93c-2.17,0-2.17,3.37,0,3.37s2.17-3.37,0-3.37Z"/>
      <path class="cls-9" d="m262.8,267.77c-2.17,0-2.17,3.37,0,3.37s2.17-3.37,0-3.37Z"/>
      <path class="cls-9" d="m262.18,275.57c-2.17,0-2.17,3.37,0,3.37s2.17-3.37,0-3.37Z"/>
      <path class="cls-9" d="m267.49,277.76c-2.17,0-2.17,3.37,0,3.37s2.17-3.37,0-3.37Z"/>
      <path class="cls-9" d="m267.64,271.36c-2.17,0-2.17,3.37,0,3.37s2.17-3.37,0-3.37Z"/>
      <path class="cls-9" d="m266.08,285.1c-2.17,0-2.17,3.37,0,3.37s2.17-3.37,0-3.37Z"/>
      <path class="cls-9" d="m290.75,283.54c-2.17,0-2.17,3.37,0,3.37s2.17-3.37,0-3.37Z"/>
      <path class="cls-9" d="m288.09,274.95c-2.17,0-2.17,3.37,0,3.37s2.17-3.37,0-3.37Z"/>
      <path class="cls-9" d="m295.9,271.04c-2.17,0-2.17,3.37,0,3.37s2.17-3.37,0-3.37Z"/>
      <path class="cls-9" d="m294.96,278.38c-2.17,0-2.17,3.37,0,3.37s2.17-3.37,0-3.37Z"/>
      <path class="cls-9" d="m318.54,292.75c-2.17,0-2.17,3.37,0,3.37s2.17-3.37,0-3.37Z"/>
      <path class="cls-9" d="m326.66,287.28c-2.17,0-2.17,3.37,0,3.37s2.17-3.37,0-3.37Z"/>
      <path class="cls-9" d="m321.19,285.25c-2.17,0-2.17,3.37,0,3.37s2.17-3.37,0-3.37Z"/>
      <path class="cls-9" d="m322.13,269.17c-2.17,0-2.17,3.37,0,3.37s2.17-3.37,0-3.37Z"/>
      <path class="cls-9" d="m330.41,266.52c-2.17,0-2.17,3.37,0,3.37s2.17-3.37,0-3.37Z"/>
      <path class="cls-1" d="m292.3,252.1c-1.29,0-1.29,2,0,2s1.29-2,0-2Z"/>
      <path class="cls-1" d="m301.47,251.41c-1.29,0-1.29,2,0,2s1.29-2,0-2Z"/>
      <path class="cls-1" d="m306.34,255.58c-1.29,0-1.29,2,0,2s1.29-2,0-2Z"/>
      <path class="cls-1" d="m323.57,253.91c-1.29,0-1.29,2,0,2s1.29-2,0-2Z"/>
      <path class="cls-1" d="m310.92,272.53c-1.29,0-1.29,2,0,2s1.29-2,0-2Z"/>
      <path class="cls-1" d="m348.87,284.35c-1.29,0-1.29,2,0,2s1.29-2,0-2Z"/>
      <path class="cls-1" d="m339.28,289.63c-1.29,0-1.29,2,0,2s1.29-2,0-2Z"/>
      <path class="cls-1" d="m351.23,293.66c-1.29,0-1.29,2,0,2s1.29-2,0-2Z"/>
      <path class="cls-1" d="m354.57,267.67c-1.29,0-1.29,2,0,2s1.29-2,0-2Z"/>
      <path class="cls-1" d="m362.63,268.08c-1.29,0-1.29,2,0,2s1.29-2,0-2Z"/>
      <path class="cls-1" d="m323.71,245.01c-1.29,0-1.29,2,0,2s1.29-2,0-2Z"/>
      <path class="cls-1" d="m332.33,242.65c-1.29,0-1.29,2,0,2s1.29-2,0-2Z"/>
      <path class="cls-1" d="m304.95,241.4c-1.29,0-1.29,2,0,2s1.29-2,0-2Z"/>
      <path class="cls-1" d="m296.75,236.39c-1.29,0-1.29,2,0,2s1.29-2,0-2Z"/>
    </g>
    <g>
      <g>
        <path class="cls-4" d="m252.2,286.65c1.04,8.82-1.56,18.02-7.07,24.99-5.43,6.87-13.62,11.49-22.31,12.6-8.73.71-17.7-2.13-24.43-7.74-6.83-5.69-11.27-14.15-12.06-23-.06-.65-.1-1.3-.12-1.95,2.64,5.63,6.82,10.56,12.03,13.95,6.77,4.4,15.18,6.18,23.16,5.02,8.05-.51,15.91-3.97,21.62-9.67,4.41-4.39,7.48-10.07,8.91-16.13.11.64.2,1.29.28,1.94Z"/>
        <path class="cls-18" d="m213.11,230.85c-.09.36-.19.71-.33,1.06-.78,2.02-2.71,3.76-4.87,3.6-1.87-.14-3.33-1.59-4.76-2.82-1.42-1.23-3.29-2.38-5.07-1.78-2.33.79-2.76,3.83-2.78,6.29-.02,2.46-.38,5.49-2.67,6.37-3.27,1.25-7.08-3.33-9.98-1.39-1.79,1.2-1.53,3.84-1.12,5.95.41,2.1.51,4.81-1.38,5.83-2.69,1.45-6.05-2.33-8.81-1.02-.97.46-1.6,1.57-1.5,2.65.09.94.53,2.33,1.39,2.72h0c-.17-.07-.33-.13-.49-.19-3.55-1.31-7.3-2.17-10.65-3.94s-6.36-4.73-6.93-8.48c-.57-3.74,2.23-8.02,6.02-7.96,3.17.05,6.69,2.77,9.14.75,1.73-1.43,1.32-4.13.83-6.32s-.67-4.98,1.24-6.17c3.41-2.12,7.91,3.96,11.29,1.8,3.51-2.25-.74-8.94,2.47-11.59,1.92-1.59,4.78-.25,6.83,1.16,2.05,1.41,4.76,2.91,6.84,1.55,2.33-1.54,1.6-5.13,2.67-7.71.92-2.23,3.44-3.68,5.83-3.34,2.38.33,4.8,2.37,5.08,4.77h0c-.22-2.4,1.34-4.85,3.6-5.67,2.27-.82,5.04.08,6.39,2.07,1.57,2.31,1.6,5.97,4.19,7,2.32.91,4.66-1.12,6.37-2.92s4.24-3.71,6.45-2.54c3.69,1.93.9,9.35,4.8,10.83,3.75,1.42,6.91-5.46,10.68-4.08,2.11.77,2.51,3.54,2.48,5.78s.13,4.97,2.12,6.02c2.81,1.48,5.69-1.91,8.78-2.61,3.69-.83,7.31,2.78,7.53,6.56.21,3.78-2.12,7.3-5.03,9.72s-6.4,4.03-9.61,6.04c-.15.1-.3.19-.44.29l-.3-.47c.76-.55,1.21-1.53,1.11-2.47-.12-1.08-.96-2.04-2.02-2.29-2.97-.72-5.48,3.67-8.41,2.81-2.06-.61-2.52-3.28-2.55-5.42-.03-2.15-.33-4.79-2.32-5.59-3.25-1.3-6.03,3.96-9.49,3.41-2.43-.39-3.4-3.28-3.93-5.68-.52-2.4-1.57-5.29-4.01-5.59-1.87-.22-3.46,1.29-4.59,2.78-1.14,1.49-2.27,3.21-4.07,3.74-2.08.6-4.33-.71-5.51-2.52-.2-.31-.38-.64-.53-.97Z"/>
        <path class="cls-10" d="m259.73,249.12h0c-4.6,2.99-8.72,7.13-10.27,12.39-2.24,7.54,1.15,15.38,2.47,23.2-1.42,6.05-4.5,11.73-8.91,16.13-5.71,5.7-13.58,9.17-21.62,9.67-7.98,1.16-16.39-.61-23.16-5.02-5.22-3.39-9.4-8.32-12.03-13.95-.32-7.92,1.38-16.29-2.36-23.21-2.6-4.83-7.48-8.04-12.6-10.01h0c-.86-.38-1.3-1.77-1.39-2.72-.1-1.08.53-2.19,1.5-2.65,2.76-1.31,6.12,2.47,8.81,1.02,1.89-1.02,1.79-3.73,1.38-5.83-.41-2.11-.67-4.75,1.12-5.95,2.9-1.94,6.71,2.64,9.98,1.39,2.29-.88,2.66-3.91,2.67-6.37.01-2.46.45-5.5,2.78-6.29,1.78-.6,3.65.55,5.07,1.78,1.42,1.23,2.88,2.68,4.76,2.82,2.16.16,4.09-1.58,4.87-3.6.13-.35.24-.7.33-1.06.15.34.33.66.53.97,1.18,1.82,3.43,3.13,5.51,2.52,1.8-.52,2.93-2.24,4.07-3.74,1.13-1.5,2.73-3.01,4.59-2.78,2.44.3,3.49,3.18,4.01,5.59.52,2.4,1.5,5.3,3.93,5.68,3.45.55,6.24-4.72,9.49-3.41,1.99.8,2.29,3.44,2.32,5.59.03,2.14.49,4.81,2.55,5.42,2.93.87,5.44-3.53,8.41-2.81,1.05.25,1.89,1.21,2.02,2.29.11.94-.04,2.39-.8,2.94Z"/>
      </g>
      <path class="cls-18" d="m244.38,264.11c1-2.78,1.62-5.68,1.8-8.62.04-.57-.27-1.12-.87-1.22-.52-.09-1.18.3-1.22.87-.24,3.86-1.25,7.6-2.91,11.01-2.25-.45-3.48-2.58-4.1-4.61-.77-2.51-.93-5.24-.63-7.84.16-1.35-1.93-1.71-2.09-.35-.56,4.89.16,13.02,5.79,14.72-2.64,4.55-6.48,8.4-11.24,10.94-2.49,1.33-5.17,2.32-7.94,2.88-.18.04-.35.11-.49.21-.97-9.31-2.11-18.6-3.41-27.86-.04-.3-.09-.6-.13-.89,5.52-2.92,9.34-8.76,9.53-15.04.02-.57-.25-1.12-.87-1.22-.5-.08-1.2.3-1.22.87-.16,5.35-3.13,10.48-7.77,13.17-.55-3.83-1.13-7.65-1.74-11.47-.21-1.34-2.32-1.13-2.11.22,1.71,10.68,3.19,21.4,4.46,32.15-6.6-1.04-12.57-4.57-16.64-9.75,3.95-3.75,3.93-9.54,2.24-14.41-.45-1.29-2.42-.52-1.97.77,1.34,3.87,1.64,8.82-1.5,11.91-.74-1.13-1.41-2.31-1.97-3.56-1.09-2.42-1.8-4.96-2.13-7.59-.17-1.35-2.28-1.14-2.11.22.98,7.88,5.28,15,11.62,19.56-1.95,1.85-4.64,3.07-7.35,2.89-2.57-.18-5.17-1.56-6.43-3.86-.27-.5-.79-.83-1.37-.6-.48.19-.88.87-.6,1.37,1.62,2.95,4.68,4.94,8.06,5.18,3.59.26,6.99-1.28,9.5-3.79,1.14.7,2.34,1.31,3.59,1.84,2.34.99,4.82,1.66,7.34,2,.68,5.88,1.29,11.78,1.84,17.67.45,4.9.86,9.8,1.22,14.7.1,1.36,2.21,1.14,2.11-.22-.55-7.49-1.21-14.97-1.98-22.44.16.08.34.11.53.08,3.8-.77,7.39-2.25,10.6-4.29,1.84,2.1,4.59,3.42,7.27,4.03,2.91.65,6.15.2,8.48-1.76,1.04-.87-.2-2.59-1.25-1.71-1.94,1.62-4.47,1.91-6.88,1.37-2.11-.47-4.36-1.52-5.87-3.14,4.89-3.59,8.73-8.56,10.83-14.41Z"/>
    </g>
    <g>
      <g>
        <path class="cls-4" d="m327.23,333.5c-4.9,7.41-12.82,12.76-21.53,14.52-8.58,1.75-17.82-.01-25.17-4.77-7.12-5.1-12.15-13.05-13.67-21.68-1.55-8.75.53-18.08,5.63-25.35.38-.53.76-1.06,1.17-1.57-1.62,6-1.6,12.46.19,18.42,2.33,7.73,7.61,14.51,14.45,18.78,6.47,4.81,14.72,7.23,22.76,6.57,6.2-.51,12.22-2.86,17.21-6.57-.33.56-.68,1.12-1.03,1.66Z"/>
        <path class="cls-18" d="m333.38,265.65c-.3.22-.61.42-.93.6-1.9,1.04-4.5,1.13-6.04-.39-1.34-1.32-1.52-3.37-1.81-5.22-.29-1.86-.98-3.94-2.72-4.63-2.29-.9-4.59,1.14-6.18,3.01-1.6,1.87-3.83,3.95-6.15,3.14-3.3-1.16-3.26-7.11-6.73-7.5-2.14-.24-3.65,1.95-4.69,3.82-1.05,1.87-2.72,4-4.82,3.56-2.99-.63-3.12-5.69-6.08-6.46-1.04-.27-2.24.17-2.86,1.06-.54.78-1.1,2.12-.69,2.97h0c-.08-.16-.17-.31-.25-.47-1.86-3.29-4.18-6.36-5.59-9.88s-1.8-7.72.18-10.95c1.98-3.22,6.88-4.68,9.74-2.2,2.39,2.09,3.32,6.43,6.5,6.47,2.24.02,3.68-2.3,4.72-4.29s2.71-4.24,4.93-3.91c3.97.58,3.49,8.13,7.46,8.66,4.13.55,5.2-7.31,9.37-7.26,2.49.03,3.81,2.9,4.47,5.3.66,2.4,1.76,5.3,4.23,5.6,2.77.33,4.53-2.88,7.01-4.17,2.14-1.11,5-.59,6.61,1.21,1.61,1.79,2.14,4.91.8,6.92h0c1.38-1.98,4.15-2.84,6.41-2.01,2.26.84,3.79,3.31,3.55,5.71-.29,2.78-2.64,5.59-1.31,8.05,1.18,2.19,4.28,2.15,6.75,1.88s5.63-.1,6.57,2.22c1.57,3.86-5.35,7.73-3.32,11.37,1.95,3.51,8.8.29,10.79,3.77,1.12,1.95-.37,4.32-1.84,6.02s-3.11,3.88-2.26,5.96c1.19,2.94,5.58,2.21,8.39,3.67,3.36,1.75,3.8,6.84,1.52,9.87-2.28,3.02-6.33,4.21-10.12,4.18s-7.49-1.06-11.24-1.58c-.18-.02-.35-.05-.53-.06l.07-.55c.94.07,1.92-.39,2.44-1.18.6-.9.58-2.18-.06-3.05-1.81-2.47-6.56-.73-8.24-3.28-1.18-1.8.19-4.13,1.55-5.79,1.36-1.66,2.84-3.87,1.84-5.77-1.64-3.09-7.16-.87-9.45-3.51-1.6-1.86-.48-4.7.67-6.88,1.16-2.17,2.21-5.06.54-6.85-1.28-1.37-3.47-1.25-5.31-.84-1.83.41-3.81.99-5.52.23-1.98-.88-2.85-3.33-2.58-5.48.05-.37.12-.73.22-1.09Z"/>
        <path class="cls-10" d="m357.2,309.69h0c-5.45-.69-11.26-.18-15.84,2.83-6.58,4.32-9.05,12.49-13.09,19.32-4.99,3.71-11.01,6.06-17.21,6.57-8.04.67-16.29-1.76-22.76-6.57-6.84-4.26-12.12-11.04-14.45-18.78-1.79-5.96-1.81-12.42-.19-18.42,4.87-6.26,11.57-11.55,13.18-19.26,1.13-5.36-.53-10.97-3.17-15.78h0c-.41-.85.15-2.19.69-2.97.62-.89,1.82-1.33,2.86-1.06,2.96.78,3.08,5.84,6.08,6.46,2.1.44,3.77-1.7,4.82-3.56,1.05-1.88,2.55-4.06,4.69-3.82,3.47.39,3.43,6.35,6.73,7.5,2.32.81,4.55-1.28,6.15-3.14,1.59-1.87,3.89-3.91,6.18-3.01,1.75.69,2.44,2.77,2.72,4.63.29,1.85.47,3.91,1.81,5.22,1.54,1.52,4.15,1.43,6.04.39.33-.18.64-.38.93-.6-.1.35-.17.72-.22,1.09-.27,2.15.6,4.6,2.58,5.48,1.71.76,3.69.18,5.52-.23,1.83-.41,4.02-.53,5.31.84,1.67,1.8.61,4.69-.54,6.85-1.15,2.17-2.27,5.01-.67,6.88,2.29,2.65,7.81.42,9.45,3.51,1,1.9-.48,4.1-1.84,5.77-1.36,1.66-2.73,3.99-1.55,5.79,1.68,2.55,6.43.82,8.24,3.28.64.87.67,2.15.06,3.05-.52.79-1.57,1.8-2.51,1.73Z"/>
      </g>
      <path class="cls-18" d="m335.8,311.24c2.56-1.48,4.9-3.29,6.94-5.43.4-.41.52-1.03.12-1.49-.34-.4-1.1-.54-1.49-.12-2.67,2.79-5.86,5-9.33,6.53-1.42-1.79-.99-4.22-.15-6.17,1.03-2.42,2.67-4.6,4.57-6.39.99-.93-.38-2.55-1.37-1.62-3.59,3.37-8.28,10.05-5.07,14.98-4.96,1.77-10.37,2.23-15.65,1.11-2.76-.59-5.45-1.56-7.92-2.92-.16-.09-.34-.14-.51-.16,5.26-7.74,10.39-15.57,15.38-23.49.16-.25.32-.51.48-.77,6.1,1.33,12.79-.66,16.99-5.34.38-.43.53-1.02.12-1.49-.33-.39-1.11-.55-1.49-.12-3.57,3.98-9.15,5.99-14.43,5.05,2.05-3.28,4.08-6.58,6.08-9.89.7-1.16-1.05-2.36-1.75-1.19-5.59,9.26-11.37,18.41-17.34,27.44-4.37-5.05-6.66-11.6-6.42-18.19,5.43-.32,9.15-4.75,11.01-9.56.49-1.27-1.52-1.96-2.01-.68-1.47,3.82-4.44,7.8-8.83,8.13.16-1.34.41-2.67.79-3.99.73-2.55,1.83-4.95,3.27-7.17.74-1.14-1-2.34-1.75-1.19-4.34,6.65-5.65,14.86-3.75,22.44-2.68.16-5.53-.65-7.48-2.54-1.85-1.79-2.94-4.53-2.42-7.1.11-.56-.07-1.14-.66-1.35-.49-.17-1.23.1-1.35.66-.67,3.3.39,6.79,2.81,9.16,2.57,2.51,6.17,3.54,9.7,3.24.42,1.27.94,2.51,1.55,3.72,1.15,2.27,2.61,4.38,4.32,6.26-3.28,4.93-6.61,9.83-10,14.69-2.82,4.03-5.67,8.04-8.56,12.02-.8,1.1.95,2.3,1.75,1.19,4.41-6.07,8.73-12.22,12.97-18.41.07.16.19.31.35.4,3.4,1.86,7.09,3.05,10.86,3.56.06,2.79,1.29,5.58,2.96,7.77,1.8,2.38,4.57,4.12,7.61,4.13,1.36,0,1.51-2.11.15-2.11-2.53-.01-4.65-1.43-6.14-3.39-1.31-1.72-2.36-3.98-2.46-6.18,6.05.41,12.19-.91,17.57-4.02Z"/>
    </g>
    <g>
      <path class="cls-9" d="m285.88,301.64c-.88.97-1.81,1.33-1.81,1.33,0,0-.93.37-1.83,1.29-.45.45-.9,1.04-1.26,1.79-.34.74-.56,1.65-.59,2.75-.04,2.19.79,3.64,1.65,4.59.87.95,1.75,1.38,1.75,1.38,0,0-4,2.22-7.41-3.4-18.01,4.92-34.78,2.01-48.04-2.89-16.54-6.12-34.8-6.12-51.34,0-13.26,4.9-30.02,7.81-48.04,2.89-4.53-1.75-7.41,3.4-7.41,3.4,0,0-.98-.22-1.98-1.07-1.01-.85-2.06-2.35-2.11-4.75-.03-1.2.21-2.18.57-2.97.35-.79.83-1.4,1.32-1.84.97-.89,1.92-1.18,1.92-1.18,0,0,.93-.29,1.93-1.12,1-.83,1.99-2.19,2.23-4.38,0-.16.03-.32.03-.48.09-2.05-.41-4.13-1.18-5.08-.78-1.01-1.64-1.49-1.64-1.49,0,0-.87-.49-1.63-1.57-.77-1.08-1.33-2.77-.8-5.11.63-2.33,1.9-3.56,3.11-4.15,1.18-.61,2.17-.62,2.17-.62,0,0,.99-.03,2.15-.56,1.14-.55,2.57-1.51,3.34-3.55.88-1.98.99-4.38.53-5.6-.43-1.19-1.1-1.91-1.1-1.91,0,0-.67-.72-1.06-2-.42-1.29-.36-3.07.91-5.14.16-.26.33-.5.5-.72.19-.21.38-.4.56-.58.38-.35.77-.63,1.15-.85.76-.45,1.5-.67,2.14-.77,1.28-.19,2.24.17,2.24.17,0,0,.95.32,2.24.25.64-.03,1.36-.17,2.1-.49.37-.16.74-.38,1.1-.65.4-.24.78-.56,1.16-.94.29-.29.61-.66.94-1.04.52-.64,1.01-1.35,1.19-1.83.27-.78.42-1.46.43-2.11.04-1.26-.3-2.2-.3-2.2,0,0-.36-.93-.24-2.27.13-1.31.86-2.95,2.83-4.39.97-.74,2-.99,2.86-1.13.88-.12,1.64-.03,2.27.13,1.27.33,2,.99,2,.99,0,0,.73.61,1.97,1.07,1.23.43,2.91.65,4.84-.31,2.01-.84,3.76-2.49,4.24-3.7.49-1.2.48-2.21.48-2.21,0,0,0-.98.59-2.14.58-1.16,1.78-2.52,4.07-3.23,2.33-.56,4.04.03,5.14.72,1.1.71,1.6,1.56,1.6,1.56,0,0,.51.83,1.55,1.58,1.06.78,2.63,1.48,4.81,1.14.13-.02.29-.05.44-.08,1.06-.2,2.44-.62,3.06-.99.7-.41,1.23-.94,1.63-1.44.78-1.01,1.03-1.97,1.03-1.97,0,0,.24-.96,1.08-1.98.42-.51.99-1.03,1.75-1.45.77-.43,1.73-.66,2.91-.7,2.36-.07,3.89.83,4.81,1.74.92.91,1.25,1.84,1.25,1.84,0,0,.33.94,1.21,1.91.88.96,2.3,1.94,4.53,2.01,1.12.04,2.88-.24,3.65-.51.77-.28,1.38-.69,1.86-1.12.83-.74,1.26-1.52,1.35-1.71l.03.02c.09-.19.52-.97,1.41-1.71.51-.43,1.16-.83,1.99-1.11.83-.29,1.82-.33,3-.15,2.35.37,3.7,1.53,4.42,2.59.72,1.1.85,2.11.85,2.11,0,0,.13.99.8,2.11.58.98,1.55,2.03,3.21,2.63.24.08.49.15.76.22,2.09.65,4.5.45,5.64-.18,1.14-.62,1.76-1.41,1.76-1.41,0,0,.62-.77,1.81-1.3,1.18-.53,2.98-.86,5.21.08,2.18,1.07,3.15,2.6,3.54,3.83.4,1.23.2,2.24.2,2.24,0,0-.17.99.11,2.25.14.63.39,1.33.83,2.01.38.61.94,1.14,1.65,1.7.1.08.2.16.31.24,1.74,1.27,4.09,1.84,5.35,1.67,1.25-.16,2.1-.67,2.1-.67,0,0,.85-.51,2.18-.6.66-.04,1.47-.02,2.28.3.81.31,1.68.86,2.54,1.73.42.43.78.87,1.05,1.3.25.45.44.89.56,1.31.26.85.3,1.63.24,2.27-.13,1.31-.65,2.14-.65,2.14,0,0-.5.82-.74,2.11-.11.64-.15,1.38,0,2.18.07.4.19.81.37,1.23.08.21.19.42.31.64.11.22.24.45.38.68,1.12,1.84,3.1,3.25,4.3,3.6,1.23.32,2.22.18,2.22.18,0,0,.99-.14,2.26.26,1.23.41,2.73,1.43,3.71,3.66.86,2.26.58,4.01-.04,5.2-.61,1.18-1.4,1.78-1.4,1.78,0,0-.78.61-1.41,1.73-.55,1.02-1.08,2.5-.69,4.39.03.14.07.29.11.45.48,2.14,1.95,4.14,3.02,4.84.89.57,1.72.78,1.97.84v.02s.99.16,2.06.93c1.04.77,2.24,2.15,2.47,4.53.26,2.38-.61,3.98-1.48,4.95Z"/>
      <path class="cls-3" d="m268.81,307.25s-.03,0-.05,0c-.7-.03-1.24-.61-1.21-1.31.04-.95.7-23.42-15.53-40.28-11.33-11.77-28.01-17.74-49.58-17.74-34.72,0-51.61,15.76-59.67,28.98-8.71,14.3-9.21,28.39-9.23,28.99-.02.7-.58,1.27-1.3,1.23-.7-.02-1.25-.6-1.23-1.3.02-.62.54-15.37,9.6-30.23,8.39-13.77,25.93-30.19,61.83-30.19,22.28,0,39.57,6.23,51.4,18.51,16.97,17.63,16.27,41.14,16.23,42.13-.03.68-.59,1.22-1.26,1.22Z"/>
      <path class="cls-3" d="m207.88,293.34c-2.68,7.82-9.4,7.82-12.08,0-5.22-15.23-9.71-36.54,6.04-36.54s11.27,21.3,6.04,36.54Z"/>
      <path class="cls-3" d="m184.89,294.43c.93,8.22-5.14,11.1-10.92,5.18-11.25-11.52-24.45-28.84-10.22-35.6,14.23-6.76,19.32,14.41,21.13,30.41Z"/>
      <path class="cls-3" d="m218.8,295.43c-.93,8.22,5.14,11.1,10.92,5.18,11.25-11.52,24.45-28.84,10.22-35.6-14.23-6.76-19.32,14.41-21.13,30.41Z"/>
      <path class="cls-3" d="m198.07,232.45c-.02-.88-.76-1.73-1.68-1.68-.9.04-1.7.74-1.68,1.68.05,3.02.11,6.04.16,9.06.02.88.76,1.73,1.68,1.68.9-.04,1.7-.74,1.68-1.68-.05-3.02-.11-6.04-.16-9.06Z"/>
      <path class="cls-3" d="m176.48,244.95c-.94-2.86-1.88-5.72-2.82-8.58-.27-.84-1.18-1.47-2.07-1.18-.83.27-1.47,1.18-1.18,2.07.94,2.86,1.88,5.72,2.82,8.58.27.84,1.18,1.47,2.07,1.18.83-.27,1.47-1.18,1.18-2.07Z"/>
      <path class="cls-3" d="m158.18,253.29c-1.92-2.5-3.83-5.01-5.75-7.51-.28-.36-.55-.65-1.01-.77-.4-.11-.94-.06-1.3.17-.69.44-1.18,1.56-.6,2.31,1.92,2.5,3.83,5.01,5.75,7.51.28.36.55.65,1.01.77.4.11.94.06,1.3-.17.69-.44,1.18-1.56.6-2.31Z"/>
      <path class="cls-3" d="m142.26,266.74c-2.5-1.72-5-3.44-7.49-5.15-.73-.5-1.9-.16-2.31.6-.45.86-.17,1.77.6,2.31,2.5,1.72,5,3.44,7.49,5.15.73.5,1.9.16,2.31-.6.45-.86.17-1.77-.6-2.31Z"/>
      <path class="cls-3" d="m132.48,286.43l-7.94-2.42c-.84-.26-1.87.31-2.07,1.18-.21.91.27,1.8,1.18,2.07,2.65.81,5.29,1.61,7.94,2.42.84.26,1.87-.31,2.07-1.18.21-.91-.27-1.8-1.18-2.07Z"/>
      <path class="cls-3" d="m128.61,303.88c-3.13.31-6,1.51-8.39,3.56-.67.58-.64,1.8,0,2.38.72.66,1.67.61,2.38,0,.12-.1.24-.2.36-.3.05-.04.1-.07.15-.11.26-.19.53-.37.8-.53.27-.17.55-.33.84-.47.14-.07.29-.14.43-.21.04-.02.48-.23.24-.11-.24.11.2-.08.25-.1.15-.06.3-.11.45-.16.3-.1.61-.2.92-.28.31-.08.62-.15.94-.21.15-.03.32-.08.48-.08-.49,0,.04,0,.15,0,.46-.04.86-.16,1.19-.49.29-.29.51-.77.49-1.19-.04-.84-.75-1.78-1.68-1.68Z"/>
      <path class="cls-3" d="m221.84,231.61c-.84-.19-1.89.25-2.07,1.18-.6,3.02-1.2,6.05-1.8,9.07-.17.86.25,1.86,1.18,2.07.84.19,1.89-.25,2.07-1.18.6-3.02,1.2-6.05,1.8-9.07.17-.86-.25-1.86-1.18-2.07Z"/>
      <path class="cls-3" d="m244.98,238.66c-.96-.22-1.73.29-2.07,1.18-1.26,3.27-2.52,6.55-3.78,9.82-.32.82.35,1.88,1.18,2.07.96.22,1.73-.29,2.07-1.18,1.26-3.27,2.52-6.55,3.78-9.82.32-.82-.35-1.88-1.18-2.07Z"/>
      <path class="cls-3" d="m263.57,252c-.67-.62-1.72-.67-2.38,0-2.46,2.48-4.93,4.96-7.39,7.44-.62.63-.67,1.77,0,2.38.67.62,1.72.67,2.38,0,2.46-2.48,4.93-4.96,7.39-7.44.62-.63.67-1.77,0-2.38Z"/>
      <path class="cls-3" d="m278.24,272.91c-.26-.81-1.19-1.5-2.07-1.18-3.28,1.21-6.55,2.41-9.83,3.62-.82.3-1.47,1.16-1.18,2.07.26.81,1.19,1.5,2.07,1.18,3.28-1.21,6.55-2.41,9.83-3.62.82-.3,1.47-1.16,1.18-2.07Z"/>
      <path class="cls-3" d="m282.55,294.29c-3.02.19-6.04.39-9.06.58-.88.06-1.73.73-1.68,1.68.04.86.74,1.74,1.68,1.68,3.02-.19,6.04-.39,9.06-.58.88-.06,1.73-.73,1.68-1.68-.04-.86-.74-1.74-1.68-1.68Z"/>
      <path class="cls-3" d="m254.91,307.58c-2.17,0-2.17,3.37,0,3.37s2.17-3.37,0-3.37Z"/>
      <path class="cls-3" d="m261.32,305.55c-2.17,0-2.17,3.37,0,3.37s2.17-3.37,0-3.37Z"/>
      <path class="cls-3" d="m258.35,300.87c-2.17,0-2.17,3.37,0,3.37s2.17-3.37,0-3.37Z"/>
      <path class="cls-3" d="m141.57,294.15c-2.17,0-2.17,3.37,0,3.37s2.17-3.37,0-3.37Z"/>
      <path class="cls-3" d="m139.69,303.21c-2.17,0-2.17,3.37,0,3.37s2.17-3.37,0-3.37Z"/>
      <path class="cls-3" d="m148.44,306.95c-2.17,0-2.17,3.37,0,3.37s2.17-3.37,0-3.37Z"/>
      <path class="cls-3" d="m149.06,297.74c-2.17,0-2.17,3.37,0,3.37s2.17-3.37,0-3.37Z"/>
      <path class="cls-3" d="m171.85,255.43c-2.17,0-2.17,3.37,0,3.37s2.17-3.37,0-3.37Z"/>
      <path class="cls-3" d="m180.91,251.06c-2.17,0-2.17,3.37,0,3.37s2.17-3.37,0-3.37Z"/>
      <path class="cls-3" d="m179.66,257.93c-2.17,0-2.17,3.37,0,3.37s2.17-3.37,0-3.37Z"/>
      <path class="cls-9" d="m170.29,267.77c-2.17,0-2.17,3.37,0,3.37s2.17-3.37,0-3.37Z"/>
      <path class="cls-9" d="m169.67,275.57c-2.17,0-2.17,3.37,0,3.37s2.17-3.37,0-3.37Z"/>
      <path class="cls-9" d="m174.98,277.76c-2.17,0-2.17,3.37,0,3.37s2.17-3.37,0-3.37Z"/>
      <path class="cls-9" d="m175.13,271.36c-2.17,0-2.17,3.37,0,3.37s2.17-3.37,0-3.37Z"/>
      <path class="cls-9" d="m173.57,285.1c-2.17,0-2.17,3.37,0,3.37s2.17-3.37,0-3.37Z"/>
      <path class="cls-9" d="m198.24,283.54c-2.17,0-2.17,3.37,0,3.37s2.17-3.37,0-3.37Z"/>
      <path class="cls-9" d="m195.59,274.95c-2.17,0-2.17,3.37,0,3.37s2.17-3.37,0-3.37Z"/>
      <path class="cls-9" d="m203.39,271.04c-2.17,0-2.17,3.37,0,3.37s2.17-3.37,0-3.37Z"/>
      <path class="cls-9" d="m202.46,278.38c-2.17,0-2.17,3.37,0,3.37s2.17-3.37,0-3.37Z"/>
      <path class="cls-9" d="m226.03,292.75c-2.17,0-2.17,3.37,0,3.37s2.17-3.37,0-3.37Z"/>
      <path class="cls-9" d="m234.15,287.28c-2.17,0-2.17,3.37,0,3.37s2.17-3.37,0-3.37Z"/>
      <path class="cls-9" d="m228.68,285.25c-2.17,0-2.17,3.37,0,3.37s2.17-3.37,0-3.37Z"/>
      <path class="cls-9" d="m229.62,269.17c-2.17,0-2.17,3.37,0,3.37s2.17-3.37,0-3.37Z"/>
      <path class="cls-9" d="m237.9,266.52c-2.17,0-2.17,3.37,0,3.37s2.17-3.37,0-3.37Z"/>
      <path class="cls-1" d="m144.68,282.56c-1.29,0-1.29,2,0,2s1.29-2,0-2Z"/>
      <path class="cls-1" d="m148.48,276.25c-1.29,0-1.29,2,0,2s1.29-2,0-2Z"/>
      <path class="cls-1" d="m149.87,281.81c-1.29,0-1.29,2,0,2s1.29-2,0-2Z"/>
      <path class="cls-1" d="m147.83,288.02c-1.29,0-1.29,2,0,2s1.29-2,0-2Z"/>
      <path class="cls-1" d="m154.04,284.97c-1.29,0-1.29,2,0,2s1.29-2,0-2Z"/>
      <path class="cls-1" d="m155.25,290.15c-1.29,0-1.29,2,0,2s1.29-2,0-2Z"/>
      <path class="cls-1" d="m143.48,257.72c-1.29,0-1.29,2,0,2s1.29-2,0-2Z"/>
      <path class="cls-1" d="m148.48,252.35c-1.29,0-1.29,2,0,2s1.29-2,0-2Z"/>
      <path class="cls-1" d="m148.58,258.83c-1.29,0-1.29,2,0,2s1.29-2,0-2Z"/>
      <path class="cls-1" d="m165.72,243.64c-1.29,0-1.29,2,0,2s1.29-2,0-2Z"/>
      <path class="cls-1" d="m186.29,238.91c-1.29,0-1.29,2,0,2s1.29-2,0-2Z"/>
      <path class="cls-1" d="m190.92,236.78c-1.29,0-1.29,2,0,2s1.29-2,0-2Z"/>
      <path class="cls-1" d="m190,241.69c-1.29,0-1.29,2,0,2s1.29-2,0-2Z"/>
      <path class="cls-1" d="m163.22,248.83c-1.29,0-1.29,2,0,2s1.29-2,0-2Z"/>
      <path class="cls-1" d="m128.1,295.81c-1.29,0-1.29,2,0,2s1.29-2,0-2Z"/>
      <path class="cls-1" d="m133.47,280.7c-1.29,0-1.29,2,0,2s1.29-2,0-2Z"/>
      <path class="cls-1" d="m126.52,281.35c-1.29,0-1.29,2,0,2s1.29-2,0-2Z"/>
      <path class="cls-1" d="m134.86,274.59c-1.29,0-1.29,2,0,2s1.29-2,0-2Z"/>
      <path class="cls-1" d="m228.27,240.95c-1.29,0-1.29,2,0,2s1.29-2,0-2Z"/>
      <path class="cls-1" d="m209.92,237.24c-1.29,0-1.29,2,0,2s1.29-2,0-2Z"/>
      <path class="cls-1" d="m213.81,254.29c-1.29,0-1.29,2,0,2s1.29-2,0-2Z"/>
      <path class="cls-1" d="m218.63,262.45c-1.29,0-1.29,2,0,2s1.29-2,0-2Z"/>
      <path class="cls-1" d="m226.04,255.03c-1.29,0-1.29,2,0,2s1.29-2,0-2Z"/>
      <path class="cls-1" d="m219.37,255.03c-1.29,0-1.29,2,0,2s1.29-2,0-2Z"/>
      <path class="cls-1" d="m206.58,251.88c-1.29,0-1.29,2,0,2s1.29-2,0-2Z"/>
      <path class="cls-1" d="m215.66,249.47c-1.29,0-1.29,2,0,2s1.29-2,0-2Z"/>
      <path class="cls-1" d="m229.75,260.22c-1.29,0-1.29,2,0,2s1.29-2,0-2Z"/>
      <path class="cls-1" d="m237.53,259.3c-1.29,0-1.29,2,0,2s1.29-2,0-2Z"/>
      <path class="cls-1" d="m257.92,277.09c-1.29,0-1.29,2,0,2s1.29-2,0-2Z"/>
      <path class="cls-1" d="m259.77,285.24c-1.29,0-1.29,2,0,2s1.29-2,0-2Z"/>
      <path class="cls-1" d="m254.77,285.06c-1.29,0-1.29,2,0,2s1.29-2,0-2Z"/>
      <path class="cls-1" d="m259.96,291.73c-1.29,0-1.29,2,0,2s1.29-2,0-2Z"/>
      <path class="cls-1" d="m265.33,269.86c-1.29,0-1.29,2,0,2s1.29-2,0-2Z"/>
      <path class="cls-1" d="m264.03,262.45c-1.29,0-1.29,2,0,2s1.29-2,0-2Z"/>
      <path class="cls-1" d="m259.59,266.9c-1.29,0-1.29,2,0,2s1.29-2,0-2Z"/>
      <path class="cls-1" d="m273.67,278.94c-1.29,0-1.29,2,0,2s1.29-2,0-2Z"/>
      <path class="cls-1" d="m274.23,288.76c-1.29,0-1.29,2,0,2s1.29-2,0-2Z"/>
      <path class="cls-1" d="m251.06,250.77c-1.29,0-1.29,2,0,2s1.29-2,0-2Z"/>
      <path class="cls-1" d="m247.17,246.32c-1.29,0-1.29,2,0,2s1.29-2,0-2Z"/>
      <path class="cls-1" d="m203.62,239.28c-1.29,0-1.29,2,0,2s1.29-2,0-2Z"/>
      <path class="cls-1" d="m214.74,243.17c-1.29,0-1.29,2,0,2s1.29-2,0-2Z"/>
    </g>
    <g>
      <path class="cls-13" d="m337.26,300.71c-.93,1.03-1.93,1.42-1.93,1.42,0,0-.99.39-1.95,1.37-.48.48-.96,1.11-1.34,1.91-.36.79-.6,1.76-.63,2.92-.04,2.33.84,3.87,1.76,4.89.92,1.01,1.87,1.47,1.87,1.47,0,0-4.26,2.36-7.89-3.62-19.18,5.24-37.02,2.14-51.14-3.08-17.61-6.51-37.05-6.51-54.66,0-14.12,5.22-31.97,8.31-51.14,3.08-4.83-1.87-7.89,3.62-7.89,3.62,0,0-1.04-.23-2.11-1.14-1.08-.91-2.19-2.5-2.24-5.06-.04-1.27.22-2.32.61-3.16.38-.84.89-1.49,1.41-1.96,1.03-.95,2.04-1.26,2.04-1.26,0,0,1-.31,2.05-1.19,1.07-.89,2.12-2.33,2.38-4.66,0-.17.03-.34.04-.51.1-2.18-.44-4.39-1.26-5.41-.83-1.08-1.75-1.59-1.75-1.59,0,0-.92-.52-1.73-1.67-.82-1.15-1.42-2.95-.85-5.44.67-2.48,2.03-3.79,3.31-4.42,1.26-.65,2.31-.66,2.31-.66,0,0,1.06-.03,2.29-.6,1.21-.58,2.74-1.61,3.55-3.78.93-2.11,1.06-4.66.56-5.96-.46-1.26-1.17-2.04-1.17-2.04,0,0-.72-.77-1.13-2.13-.45-1.37-.39-3.26.97-5.47.17-.28.35-.53.53-.76.2-.22.4-.43.6-.62.4-.37.82-.67,1.22-.91.81-.48,1.6-.72,2.28-.82,1.36-.2,2.39.18,2.39.18,0,0,1.01.34,2.39.27.68-.04,1.45-.18,2.23-.52.39-.17.79-.4,1.17-.69.42-.26.83-.59,1.24-1,.3-.3.65-.7,1-1.11.56-.68,1.08-1.44,1.26-1.95.29-.83.45-1.55.46-2.24.04-1.35-.32-2.34-.32-2.34,0,0-.39-.99-.25-2.41.13-1.4.91-3.14,3.01-4.67,1.03-.79,2.13-1.06,3.04-1.2.93-.13,1.75-.04,2.42.14,1.35.35,2.13,1.05,2.13,1.05,0,0,.78.65,2.1,1.14,1.31.46,3.09.69,5.16-.33,2.13-.9,4-2.65,4.51-3.94.52-1.28.51-2.35.51-2.35,0,0,0-1.04.63-2.28.62-1.24,1.89-2.68,4.33-3.44,2.48-.6,4.31.03,5.47.77,1.17.75,1.7,1.66,1.7,1.66,0,0,.54.88,1.65,1.68,1.13.83,2.8,1.58,5.12,1.21.14-.02.3-.05.47-.08,1.13-.22,2.6-.66,3.26-1.05.74-.44,1.31-1,1.73-1.53.83-1.08,1.09-2.1,1.09-2.1,0,0,.25-1.02,1.15-2.11.45-.54,1.06-1.09,1.87-1.54.82-.46,1.84-.7,3.09-.74,2.51-.07,4.14.88,5.12,1.85.98.97,1.33,1.96,1.33,1.96,0,0,.35,1,1.29,2.04.94,1.02,2.45,2.06,4.83,2.13,1.19.04,3.07-.25,3.88-.55.82-.3,1.47-.74,1.98-1.19.89-.79,1.34-1.62,1.44-1.82l.04.02c.1-.2.56-1.03,1.5-1.82.54-.46,1.24-.89,2.12-1.18.88-.3,1.94-.35,3.19-.16,2.5.39,3.94,1.63,4.71,2.76.77,1.17.91,2.24.91,2.24,0,0,.14,1.06.85,2.24.62,1.04,1.65,2.16,3.42,2.8.25.09.52.16.81.23,2.22.69,4.79.48,6.01-.19,1.21-.66,1.87-1.5,1.87-1.5,0,0,.66-.82,1.93-1.38,1.26-.57,3.17-.91,5.54.09,2.32,1.14,3.35,2.77,3.77,4.08.42,1.31.22,2.39.22,2.39,0,0-.18,1.05.12,2.39.15.67.41,1.42.89,2.13.4.65,1,1.21,1.76,1.81.11.08.22.17.33.26,1.85,1.35,4.35,1.96,5.7,1.78,1.33-.17,2.23-.71,2.23-.71,0,0,.91-.54,2.32-.64.7-.04,1.57-.02,2.43.32.86.33,1.79.91,2.71,1.84.45.46.83.92,1.12,1.38.27.48.47.95.6,1.4.28.91.32,1.73.26,2.42-.13,1.39-.69,2.28-.69,2.28,0,0-.53.87-.79,2.24-.12.68-.16,1.47,0,2.32.07.42.2.86.39,1.31.09.22.21.45.33.68.12.23.25.48.4.73,1.19,1.96,3.3,3.46,4.57,3.83,1.31.34,2.36.19,2.36.19,0,0,1.05-.15,2.4.28,1.31.44,2.91,1.52,3.95,3.89.91,2.4.62,4.27-.04,5.53-.65,1.26-1.49,1.89-1.49,1.89,0,0-.83.65-1.5,1.84-.58,1.09-1.15,2.66-.74,4.67.04.15.07.31.12.48.51,2.28,2.07,4.4,3.21,5.16.95.61,1.83.83,2.1.9v.02s1.05.17,2.19.99c1.1.82,2.39,2.29,2.63,4.83.28,2.54-.65,4.24-1.58,5.26Z"/>
      <path class="cls-12" d="m319.09,306.68s-.04,0-.05,0c-.74-.03-1.32-.65-1.29-1.4.04-1.01.75-24.93-16.53-42.88-12.06-12.53-29.82-18.89-52.78-18.89-36.96,0-54.95,16.78-63.52,30.85-9.28,15.22-9.81,30.23-9.83,30.86-.02.74-.62,1.35-1.38,1.31-.74-.02-1.33-.64-1.31-1.38.02-.66.57-16.36,10.22-32.18,8.94-14.66,27.61-32.14,65.82-32.14,23.72,0,42.13,6.63,54.72,19.71,18.06,18.77,17.32,43.79,17.28,44.85-.03.72-.62,1.29-1.34,1.29Z"/>
      <path class="cls-12" d="m254.23,291.87c-2.86,8.33-10.01,8.33-12.87,0-5.56-16.22-10.34-38.9,6.43-38.9s12,22.68,6.43,38.9Z"/>
      <path class="cls-12" d="m229.74,293.02c.99,8.75-5.47,11.82-11.62,5.52-11.98-12.26-26.03-30.7-10.88-37.9,15.15-7.2,20.57,15.34,22.5,32.38Z"/>
      <path class="cls-12" d="m265.84,294.09c-.99,8.75,5.47,11.82,11.62,5.52,11.98-12.26,26.03-30.7,10.88-37.9-15.15-7.2-20.57,15.34-22.5,32.38Z"/>
      <path class="cls-12" d="m243.78,227.04c-.02-.94-.81-1.84-1.79-1.79-.96.04-1.81.79-1.79,1.79.06,3.21.11,6.43.17,9.64.02.94.81,1.84,1.79,1.79.96-.04,1.81-.79,1.79-1.79-.06-3.21-.11-6.43-.17-9.64Z"/>
      <path class="cls-12" d="m220.8,240.35c-1-3.05-2-6.09-3-9.14-.29-.89-1.25-1.56-2.21-1.25-.89.29-1.57,1.25-1.25,2.21,1,3.05,2,6.09,3,9.14.29.89,1.25,1.56,2.21,1.25.89-.29,1.57-1.25,1.25-2.21Z"/>
      <path class="cls-12" d="m201.31,249.23c-2.04-2.67-4.08-5.33-6.12-8-.3-.39-.58-.69-1.07-.82-.43-.12-1-.06-1.38.18-.73.47-1.25,1.66-.64,2.45,2.04,2.67,4.08,5.33,6.12,8,.3.39.58.69,1.07.82.43.12,1,.06,1.38-.18.73-.47,1.25-1.66.64-2.45Z"/>
      <path class="cls-12" d="m184.36,263.55c-2.66-1.83-5.32-3.66-7.98-5.49-.78-.53-2.02-.17-2.45.64-.48.91-.18,1.89.64,2.45,2.66,1.83,5.32,3.66,7.98,5.49.78.53,2.02.17,2.45-.64.48-.91.18-1.89-.64-2.45Z"/>
      <path class="cls-12" d="m173.95,284.51c-2.82-.86-5.63-1.72-8.45-2.58-.9-.27-2,.33-2.21,1.25-.22.97.29,1.91,1.25,2.21,2.82.86,5.63,1.72,8.45,2.58.9.27,2-.33,2.21-1.25.22-.97-.29-1.91-1.25-2.21Z"/>
      <path class="cls-12" d="m169.83,303.09c-3.33.33-6.39,1.61-8.93,3.79-.72.61-.68,1.92,0,2.54.76.7,1.77.65,2.54,0,.13-.11.26-.21.38-.32.05-.04.1-.08.16-.12.28-.2.56-.39.85-.57.29-.18.59-.35.89-.5.15-.08.31-.15.46-.23.04-.02.51-.24.25-.12-.26.12.21-.08.26-.1.16-.06.32-.12.48-.17.32-.11.65-.21.98-.29.33-.09.66-.16,1-.22.16-.03.34-.08.51-.08-.52,0,.04,0,.16-.01.49-.05.91-.17,1.27-.53.31-.31.55-.82.53-1.27-.04-.89-.79-1.89-1.79-1.79Z"/>
      <path class="cls-12" d="m269.09,226.15c-.89-.2-2.01.27-2.21,1.25-.64,3.22-1.28,6.44-1.92,9.66-.18.92.26,1.98,1.25,2.21.89.2,2.01-.27,2.21-1.25.64-3.22,1.28-6.44,1.92-9.66.18-.92-.26-1.98-1.25-2.21Z"/>
      <path class="cls-12" d="m293.72,233.65c-1.03-.23-1.85.31-2.21,1.25-1.34,3.49-2.68,6.97-4.02,10.46-.34.88.37,2.01,1.25,2.21,1.03.23,1.85-.31,2.21-1.25,1.34-3.49,2.68-6.97,4.02-10.46.34-.88-.37-2.01-1.25-2.21Z"/>
      <path class="cls-12" d="m313.52,247.85c-.71-.66-1.83-.71-2.54,0-2.62,2.64-5.25,5.28-7.87,7.92-.66.67-.72,1.88,0,2.54.71.66,1.83.71,2.54,0,2.62-2.64,5.25-5.28,7.87-7.92.66-.67.72-1.88,0-2.54Z"/>
      <path class="cls-12" d="m329.13,270.12c-.28-.86-1.26-1.6-2.21-1.25-3.49,1.28-6.97,2.57-10.46,3.85-.88.32-1.57,1.23-1.25,2.21.28.86,1.26,1.6,2.21,1.25,3.49-1.28,6.97-2.57,10.46-3.85.88-.32,1.57-1.23,1.25-2.21Z"/>
      <path class="cls-12" d="m333.72,292.88c-3.21.2-6.43.41-9.64.61-.93.06-1.84.78-1.79,1.79.04.92.79,1.86,1.79,1.79,3.21-.2,6.43-.41,9.64-.61.93-.06,1.84-.78,1.79-1.79-.04-.92-.79-1.86-1.79-1.79Z"/>
      <path class="cls-12" d="m304.3,307.03c-2.31,0-2.31,3.59,0,3.59s2.31-3.59,0-3.59Z"/>
      <path class="cls-12" d="m311.11,304.86c-2.31,0-2.31,3.59,0,3.59s2.31-3.59,0-3.59Z"/>
      <path class="cls-12" d="m307.95,299.88c-2.31,0-2.31,3.59,0,3.59s2.31-3.59,0-3.59Z"/>
      <path class="cls-12" d="m183.62,292.73c-2.31,0-2.31,3.59,0,3.59s2.31-3.59,0-3.59Z"/>
      <path class="cls-12" d="m181.63,302.37c-2.31,0-2.31,3.59,0,3.59s2.31-3.59,0-3.59Z"/>
      <path class="cls-12" d="m190.94,306.36c-2.31,0-2.31,3.59,0,3.59s2.31-3.59,0-3.59Z"/>
      <path class="cls-12" d="m191.6,296.55c-2.31,0-2.31,3.59,0,3.59s2.31-3.59,0-3.59Z"/>
      <path class="cls-12" d="m215.87,251.51c-2.31,0-2.31,3.59,0,3.59s2.31-3.59,0-3.59Z"/>
      <path class="cls-12" d="m225.51,246.85c-2.31,0-2.31,3.59,0,3.59s2.31-3.59,0-3.59Z"/>
      <path class="cls-12" d="m224.18,254.17c-2.31,0-2.31,3.59,0,3.59s2.31-3.59,0-3.59Z"/>
      <path class="cls-13" d="m214.21,264.64c-2.31,0-2.31,3.59,0,3.59s2.31-3.59,0-3.59Z"/>
      <path class="cls-13" d="m213.54,272.95c-2.31,0-2.31,3.59,0,3.59s2.31-3.59,0-3.59Z"/>
      <path class="cls-13" d="m219.19,275.28c-2.31,0-2.31,3.59,0,3.59s2.31-3.59,0-3.59Z"/>
      <path class="cls-13" d="m219.36,268.46c-2.31,0-2.31,3.59,0,3.59s2.31-3.59,0-3.59Z"/>
      <path class="cls-13" d="m217.7,283.09c-2.31,0-2.31,3.59,0,3.59s2.31-3.59,0-3.59Z"/>
      <path class="cls-13" d="m243.96,281.43c-2.31,0-2.31,3.59,0,3.59s2.31-3.59,0-3.59Z"/>
      <path class="cls-13" d="m241.13,272.29c-2.31,0-2.31,3.59,0,3.59s2.31-3.59,0-3.59Z"/>
      <path class="cls-13" d="m249.44,268.13c-2.31,0-2.31,3.59,0,3.59s2.31-3.59,0-3.59Z"/>
      <path class="cls-13" d="m248.45,275.94c-2.31,0-2.31,3.59,0,3.59s2.31-3.59,0-3.59Z"/>
      <path class="cls-13" d="m273.55,291.23c-2.31,0-2.31,3.59,0,3.59s2.31-3.59,0-3.59Z"/>
      <path class="cls-13" d="m282.19,285.42c-2.31,0-2.31,3.59,0,3.59s2.31-3.59,0-3.59Z"/>
      <path class="cls-13" d="m276.37,283.26c-2.31,0-2.31,3.59,0,3.59s2.31-3.59,0-3.59Z"/>
      <path class="cls-13" d="m277.37,266.14c-2.31,0-2.31,3.59,0,3.59s2.31-3.59,0-3.59Z"/>
      <path class="cls-13" d="m286.18,263.31c-2.31,0-2.31,3.59,0,3.59s2.31-3.59,0-3.59Z"/>
      <path class="cls-8" d="m190.96,279.64c-.27-.43-.91-.68-1.37-.36-1.86,1.29-3.71,2.58-5.57,3.87-.43.3-.67.89-.36,1.37.27.43.91.68,1.37.36,1.86-1.29,3.71-2.58,5.57-3.87.43-.3.67-.89.36-1.37Z"/>
      <path class="cls-8" d="m197.61,276.7c-1.85-1.24-3.7-2.48-5.55-3.72-.44-.29-1.13-.1-1.37.36-.27.5-.11,1.06.36,1.37,1.85,1.24,3.7,2.48,5.55,3.72.44.29,1.13.1,1.37-.36.27-.5.11-1.06-.36-1.37Z"/>
      <path class="cls-8" d="m194.9,281.72c-.6.03-.93.44-1,1-.25,1.91-.49,3.83-.74,5.75-.07.52.51,1.02,1,1,.6-.03.93-.44,1-1,.25-1.92.49-3.83.74-5.75.07-.52-.51-1.02-1-1Z"/>
      <path class="cls-8" d="m250.88,245.95c-2.29-.06-4.57-.12-6.86-.19-.54-.01-1,.47-1,1s.46.99,1,1c2.29.06,4.57.12,6.86.19.54.01,1-.47,1-1s-.46-.99-1-1Z"/>
      <path class="cls-8" d="m261.92,247.35c-.31-.49-.86-.6-1.37-.36-1.98.93-3.95,1.86-5.93,2.79-.47.22-.63.94-.36,1.37.31.49.86.6,1.37.36,1.98-.93,3.95-1.86,5.93-2.79.47-.22.63-.94.36-1.37Z"/>
      <path class="cls-8" d="m264.99,256.58c-1.18-1.48-2.35-2.96-3.53-4.44-.33-.41-1.08-.37-1.41,0-.4.44-.35.98,0,1.41,1.18,1.48,2.35,2.96,3.53,4.44.33.41,1.08.37,1.41,0,.4-.44.35-.98,0-1.41Z"/>
      <path class="cls-8" d="m306.57,272.25c-1.48-1.3-2.96-2.6-4.44-3.9-.39-.34-1.03-.42-1.41,0-.35.38-.42,1.05,0,1.41,1.48,1.3,2.96,2.6,4.44,3.9.39.34,1.03.42,1.41,0,.35-.38.42-1.05,0-1.41Z"/>
      <path class="cls-8" d="m300.67,275.84c-.53-.12-1.08.16-1.23.7-.42,1.49-.85,2.97-1.27,4.46-.14.5.17,1.11.7,1.23.53.12,1.08-.16,1.23-.7.42-1.49.85-2.97,1.27-4.46.14-.5-.17-1.11-.7-1.23Z"/>
      <path class="cls-8" d="m309.32,283.59c-1.45-1.39-2.9-2.79-4.35-4.18-.38-.36-1.04-.4-1.41,0-.36.39-.4,1.03,0,1.41,1.45,1.39,2.9,2.79,4.35,4.18.38.36,1.04.4,1.41,0,.36-.39.4-1.03,0-1.41Z"/>
      <path class="cls-8" d="m275.89,251.49c-2.1.19-4.2.37-6.3.56-.52.05-1.03.43-1,1,.02.5.44,1.05,1,1,2.1-.19,4.2-.37,6.3-.56.52-.05,1.03-.43,1-1-.02-.5-.44-1.05-1-1Z"/>
      <path class="cls-8" d="m270.12,259.59c-.38-.35-1.04-.41-1.41,0-1.36,1.48-2.72,2.97-4.08,4.45-.35.39-.41,1.04,0,1.41.38.35,1.04.41,1.41,0,1.36-1.48,2.72-2.97,4.08-4.45.35-.39.41-1.04,0-1.41Z"/>
      <path class="cls-8" d="m233.57,259.29c-.55-.13-1.05.17-1.23.7-.68,2.04-1.36,4.08-2.04,6.12-.17.5.19,1.11.7,1.23.55.13,1.05-.17,1.23-.7.68-2.04,1.36-4.08,2.04-6.12.17-.5-.19-1.11-.7-1.23Z"/>
      <path class="cls-8" d="m233.57,272.51l-4.63-4.45c-.38-.36-1.04-.4-1.41,0-.36.39-.4,1.03,0,1.41,1.54,1.48,3.09,2.97,4.63,4.45.38.36,1.04.4,1.41,0,.36-.39.4-1.03,0-1.41Z"/>
    </g>
  </g>
  <g>
    <g>
      <polygon class="cls-5" points="312.93 0 250.49 195 255.5 198.04 326.92 0 312.93 0"/>
      <polygon class="cls-17" points="326.92 0 319.77 0 253.23 196.67 255.5 198.04 326.92 0"/>
    </g>
    <g>
      <path class="cls-13" d="m340.68,214.93c-1.15.62-2.15.66-2.15.66,0,0-1,.04-2.15.61-.57.28-1.2.69-1.78,1.28-.56.59-1.08,1.37-1.47,2.4-.77,2.05-.46,3.7.04,4.88.5,1.19,1.2,1.88,1.2,1.88,0,0-4.51.77-5.87-5.67-18.62-1.32-33.48-9.62-44.37-18.64-13.58-11.25-30.81-17.3-48.44-17.01-14.14.23-30.92-2.58-46.28-13.19-3.7-3.15-8.12.76-8.12.76,0,0-.85-.53-1.51-1.67-.67-1.14-1.16-2.9-.41-5.18.36-1.14.92-1.99,1.52-2.61.6-.63,1.25-1.04,1.86-1.29,1.21-.52,2.2-.48,2.2-.48,0,0,.98.03,2.19-.42,1.22-.45,2.6-1.41,3.56-3.39.06-.15.13-.29.19-.44.77-1.9.98-4.03.57-5.18-.4-1.21-1.06-1.95-1.06-1.95,0,0-.66-.75-1.02-2.02-.37-1.27-.34-3.06.94-5.09,1.37-1.98,2.98-2.73,4.31-2.89,1.31-.18,2.26.13,2.26.13,0,0,.95.31,2.21.18,1.25-.14,2.92-.57,4.32-2.24,1.48-1.58,2.39-3.8,2.36-5.11-.01-1.26-.41-2.17-.41-2.17,0,0-.4-.91-.34-2.24.03-1.36.67-3.01,2.56-4.55.24-.19.47-.36.71-.51.24-.14.49-.26.73-.36.47-.2.93-.34,1.36-.42.87-.18,1.64-.14,2.27-.01,1.27.25,2.06.9,2.06.9,0,0,.79.62,2.03.98.62.18,1.34.29,2.14.23.4-.03.83-.11,1.26-.25.45-.1.92-.27,1.41-.5.37-.18.8-.42,1.23-.68.7-.43,1.4-.94,1.73-1.33.51-.64.88-1.24,1.1-1.84.46-1.18.44-2.18.44-2.18,0,0-.03-.99.53-2.22.55-1.2,1.79-2.5,4.12-3.2,1.16-.38,2.21-.28,3.07-.12.87.18,1.56.51,2.1.88,1.09.73,1.56,1.59,1.56,1.59,0,0,.49.82,1.51,1.66,1.02.81,2.53,1.57,4.67,1.31,2.17-.13,4.37-1.1,5.22-2.09.86-.97,1.18-1.92,1.18-1.92,0,0,.32-.92,1.27-1.82.93-.9,2.51-1.79,4.91-1.7,2.39.24,3.81,1.36,4.61,2.39.8,1.03.99,2,.99,2,0,0,.2.95.94,2,.74,1.09,1.99,2.27,4.16,2.67.13.03.29.05.44.07,1.07.16,2.51.22,3.21.08.8-.16,1.47-.47,2.01-.82,1.07-.69,1.62-1.52,1.62-1.52,0,0,.54-.83,1.67-1.51.56-.34,1.28-.64,2.13-.79.87-.15,1.85-.05,2.97.3,2.25.72,3.4,2.07,3.96,3.23.57,1.16.57,2.15.57,2.15,0,0,0,1,.51,2.21.52,1.2,1.53,2.59,3.61,3.39,1.04.41,2.8.73,3.61.72.82,0,1.53-.19,2.13-.44,1.03-.42,1.69-1.02,1.84-1.17l.03.03c.15-.14.81-.74,1.89-1.15.62-.24,1.37-.4,2.24-.39.87,0,1.83.29,2.88.85,2.09,1.13,2.98,2.67,3.31,3.91.32,1.28.11,2.27.11,2.27,0,0-.2.98.06,2.25.22,1.11.79,2.43,2.16,3.54.19.16.41.3.64.46,1.76,1.3,4.09,1.92,5.38,1.7,1.28-.21,2.13-.74,2.13-.74,0,0,.84-.52,2.14-.62,1.29-.11,3.1.18,4.88,1.8,1.7,1.73,2.11,3.5,2.07,4.79-.03,1.29-.55,2.18-.55,2.18,0,0-.49.87-.64,2.16-.07.64-.08,1.38.12,2.17.15.71.51,1.39.99,2.15.07.1.14.22.21.33,1.22,1.78,3.24,3.09,4.5,3.35,1.23.26,2.2.07,2.2.07,0,0,.97-.2,2.26.16.63.18,1.4.47,2.05,1.04.66.56,1.31,1.37,1.83,2.47.26.54.44,1.08.56,1.57.09.51.12.99.1,1.43-.04.89-.25,1.63-.52,2.23-.55,1.19-1.32,1.8-1.32,1.8,0,0-.74.61-1.4,1.74-.32.57-.6,1.25-.73,2.06-.07.4-.09.82-.06,1.28,0,.23.04.46.08.71.03.24.07.5.13.77.45,2.1,1.85,4.1,2.86,4.82,1.05.71,2.03.9,2.03.9,0,0,.98.19,2.04.99,1.02.8,2.1,2.26,2.29,4.68.06,2.41-.78,3.98-1.76,4.89-.96.91-1.91,1.21-1.91,1.21,0,0-.94.31-1.9,1.16-.85.78-1.85,2-2.11,3.91-.02.15-.03.3-.05.47-.26,2.18.47,4.55,1.24,5.57.65.84,1.36,1.31,1.58,1.45v.02s.87.48,1.63,1.56c.72,1.07,1.4,2.77.83,5.09-.54,2.34-1.9,3.56-3.04,4.17Z"/>
      <path class="cls-12" d="m322.72,214.56s-.03-.01-.05-.02c-.65-.26-.97-.99-.71-1.64.35-.88,8.42-21.86-1.31-43.15-6.79-14.86-20.55-26.02-40.9-33.16-32.76-11.5-53.92-2.23-65.9,7.57-12.96,10.6-18.1,23.74-18.31,24.29-.25.65-.97,1.01-1.63.73-.65-.25-.98-.98-.73-1.63.22-.58,5.6-14.32,19.07-25.34,12.48-10.21,34.47-19.89,68.33-8,21.02,7.38,35.28,18.99,42.36,34.49,10.17,22.25,1.73,44.2,1.36,45.13-.25.63-.96.95-1.59.73Z"/>
      <path class="cls-12" d="m269.84,181.26c-5.12,6.49-11.46,4.27-11.4-4,.12-16.1,2.94-37.69,17.8-32.47,14.87,5.22,3.57,23.83-6.4,36.48Z"/>
      <path class="cls-12" d="m247.78,174.66c-1.84,8.06-8.52,8.77-12.02,1.27-6.8-14.6-13.51-35.31,2.15-36.97,15.67-1.66,13.45,19.99,9.87,35.7Z"/>
      <path class="cls-12" d="m279.45,186.84c-3.6,7.45,1.17,12.18,8.58,8.51,14.43-7.14,32.62-19.11,21.43-30.2s-23,7.2-30.01,21.69Z"/>
      <path class="cls-12" d="m280.75,120.55c.28-.84-.15-1.88-1.03-2.15-.86-.26-1.85.14-2.15,1.03-.95,2.87-1.9,5.73-2.85,8.6-.28.84.15,1.88,1.03,2.15.86.26,1.85-.14,2.15-1.03.95-2.87,1.9-5.73,2.85-8.6Z"/>
      <path class="cls-12" d="m256.24,125.19c.06-3.01.12-6.02.18-9.03.02-.88-.63-1.77-1.57-1.8-.88-.02-1.78.62-1.8,1.57-.06,3.01-.12,6.02-.18,9.03-.02.88.63,1.77,1.57,1.8.88.02,1.78-.62,1.8-1.57Z"/>
      <path class="cls-12" d="m236.21,127c-.98-3-1.96-6-2.94-8.99-.14-.44-.3-.79-.69-1.06-.34-.24-.87-.37-1.28-.27-.8.19-1.63,1.08-1.33,1.97.98,3,1.96,6,2.94,8.99.14.44.3.79.69,1.06.34.24.87.37,1.28.27.8-.19,1.63-1.08,1.33-1.97Z"/>
      <path class="cls-12" d="m216.73,134.42c-1.79-2.45-3.58-4.9-5.36-7.34-.52-.71-1.74-.78-2.38-.19-.71.66-.75,1.61-.19,2.38,1.79,2.45,3.58,4.9,5.36,7.34.52.71,1.74.78,2.38.19.71-.66.75-1.61.19-2.38Z"/>
      <path class="cls-12" d="m200.98,149.76l-6.69-4.92c-.71-.52-1.87-.33-2.35.42-.5.79-.34,1.79.42,2.35,2.23,1.64,4.46,3.28,6.69,4.92.71.52,1.87.33,2.35-.42.5-.79.34-1.79-.42-2.35Z"/>
      <path class="cls-12" d="m191.55,164.94c-3.05-.75-6.16-.56-9.09.58-.82.32-1.2,1.49-.79,2.25.46.86,1.37,1.13,2.25.79.15-.06.29-.11.44-.16.06-.02.12-.04.17-.05.31-.09.62-.17.93-.24.31-.07.63-.12.95-.17.16-.02.32-.04.48-.06.05,0,.53-.05.26-.03-.27.03.21,0,.26,0,.16,0,.32,0,.48,0,.32,0,.64.02.96.04.32.03.64.07.96.12.15.02.33.03.47.09-.46-.16.04.01.14.04.45.11.86.13,1.29-.07.37-.18.74-.56.86-.96.24-.8-.11-1.92-1.03-2.15Z"/>
      <path class="cls-12" d="m303.46,127.64c-.73-.46-1.87-.39-2.35.42-1.57,2.65-3.14,5.31-4.7,7.96-.45.76-.38,1.84.42,2.35.73.46,1.87.39,2.35-.42,1.57-2.65,3.14-5.31,4.7-7.96.45-.76.38-1.84-.42-2.35Z"/>
      <path class="cls-12" d="m322.95,141.95c-.84-.53-1.73-.3-2.35.42-2.27,2.67-4.55,5.35-6.82,8.02-.57.67-.29,1.89.42,2.35.84.53,1.73.3,2.35-.42,2.27-2.67,4.55-5.35,6.82-8.02.57-.67.29-1.89-.42-2.35Z"/>
      <path class="cls-12" d="m336.08,160.69c-.43-.8-1.4-1.2-2.25-.79-3.15,1.52-6.29,3.05-9.44,4.57-.79.38-1.22,1.44-.79,2.25.43.8,1.4,1.2,2.25.79,3.15-1.52,6.29-3.05,9.44-4.57.79-.38,1.22-1.44.79-2.25Z"/>
      <path class="cls-12" d="m342.99,185.29c.02-.85-.62-1.81-1.57-1.8-3.49.05-6.98.1-10.47.16-.88.01-1.77.6-1.8,1.57-.02.85.62,1.81,1.57,1.8,3.49-.05,6.98-.1,10.47-.16.88-.01,1.77-.6,1.8-1.57Z"/>
      <path class="cls-12" d="m339.97,206.89c-2.91-.82-5.83-1.64-8.74-2.46-.85-.24-1.87.12-2.15,1.03-.25.83.12,1.89,1.03,2.15,2.91.82,5.83,1.64,8.74,2.46.85.24,1.87-.12,2.15-1.03.25-.83-.12-1.89-1.03-2.15Z"/>
      <path class="cls-12" d="m309.5,210.27c-2.05-.72-3.17,2.46-1.12,3.18s3.17-2.46,1.12-3.18Z"/>
      <path class="cls-12" d="m316.21,210.47c-2.05-.72-3.17,2.46-1.12,3.18s3.17-2.46,1.12-3.18Z"/>
      <path class="cls-12" d="m314.96,205.07c-2.05-.72-3.17,2.46-1.12,3.18s3.17-2.46,1.12-3.18Z"/>
      <path class="cls-12" d="m207,160.05c-2.05-.72-3.17,2.46-1.12,3.18s3.17-2.46,1.12-3.18Z"/>
      <path class="cls-12" d="m202.23,167.98c-2.05-.72-3.17,2.46-1.12,3.18s3.17-2.46,1.12-3.18Z"/>
      <path class="cls-12" d="m209.24,174.41c-2.05-.72-3.17,2.46-1.12,3.18s3.17-2.46,1.12-3.18Z"/>
      <path class="cls-12" d="m212.88,165.92c-2.05-.72-3.17,2.46-1.12,3.18s3.17-2.46,1.12-3.18Z"/>
      <path class="cls-12" d="m248.4,133.55c-2.05-.72-3.17,2.46-1.12,3.18s3.17-2.46,1.12-3.18Z"/>
      <path class="cls-12" d="m258.39,132.43c-2.05-.72-3.17,2.46-1.12,3.18s3.17-2.46,1.12-3.18Z"/>
      <path class="cls-12" d="m254.94,138.5c-2.05-.72-3.17,2.46-1.12,3.18s3.17-2.46,1.12-3.18Z"/>
      <path class="cls-13" d="m242.84,144.67c-2.05-.72-3.17,2.46-1.12,3.18s3.17-2.46,1.12-3.18Z"/>
      <path class="cls-13" d="m239.67,151.83c-2.05-.72-3.17,2.46-1.12,3.18s3.17-2.46,1.12-3.18Z"/>
      <path class="cls-13" d="m243.95,155.65c-2.05-.72-3.17,2.46-1.12,3.18s3.17-2.46,1.12-3.18Z"/>
      <path class="cls-13" d="m246.22,149.67c-2.05-.72-3.17,2.46-1.12,3.18s3.17-2.46,1.12-3.18Z"/>
      <path class="cls-13" d="m240.2,162.11c-2.05-.72-3.17,2.46-1.12,3.18s3.17-2.46,1.12-3.18Z"/>
      <path class="cls-13" d="m263.99,168.81c-2.05-.72-3.17,2.46-1.12,3.18s3.17-2.46,1.12-3.18Z"/>
      <path class="cls-13" d="m264.33,159.83c-2.05-.72-3.17,2.46-1.12,3.18s3.17-2.46,1.12-3.18Z"/>
      <path class="cls-13" d="m272.99,158.73c-2.05-.72-3.17,2.46-1.12,3.18s3.17-2.46,1.12-3.18Z"/>
      <path class="cls-13" d="m269.67,165.34c-2.05-.72-3.17,2.46-1.12,3.18s3.17-2.46,1.12-3.18Z"/>
      <path class="cls-13" d="m287.16,186.71c-2.05-.72-3.17,2.46-1.12,3.18s3.17-2.46,1.12-3.18Z"/>
      <path class="cls-13" d="m296.63,184.24c-2.05-.72-3.17,2.46-1.12,3.18s3.17-2.46,1.12-3.18Z"/>
      <path class="cls-13" d="m292.15,180.52c-2.05-.72-3.17,2.46-1.12,3.18s3.17-2.46,1.12-3.18Z"/>
      <path class="cls-13" d="m298.36,165.65c-2.05-.72-3.17,2.46-1.12,3.18s3.17-2.46,1.12-3.18Z"/>
      <path class="cls-13" d="m307.04,165.89c-2.05-.72-3.17,2.46-1.12,3.18s3.17-2.46,1.12-3.18Z"/>
    </g>
    <g>
      <polygon class="cls-5" points="354.35 0 252.25 195.43 256.63 199.32 369.4 0 354.35 0"/>
      <polygon class="cls-17" points="369.4 0 361.67 0 254.65 197.57 256.63 199.32 369.4 0"/>
    </g>
  </g>
  <g>
    <g>
      <path class="cls-16" d="m132.61,214.52s-6.7,16.36-19.59,24.08c0,0,1.55,9.17,10.24,13.12,0,0,10.47-13.73,13.39-32.33l-4.03-4.86Z"/>
      <path class="cls-18" d="m113.01,238.6s4.84-15.36,19.59-24.08c0,0-6.52,16.4-19.59,24.08Z"/>
    </g>
    <g>
      <path class="cls-18" d="m142.51,196.88c-.54,1.17-6.78-.57-13.93-3.89s-12.5-6.96-11.96-8.13,6.78.57,13.93,3.89,12.5,6.96,11.96,8.13Z"/>
      <path class="cls-16" d="m142.51,196.88l-3.58,7.71c-.55,1.17-6.78-.57-13.93-3.89s-12.5-6.96-11.96-8.13l3.58-7.71c-.54,1.17,4.81,4.81,11.96,8.13s13.38,5.06,13.93,3.89Z"/>
    </g>
    <g>
      <path class="cls-16" d="m150.2,187.91s7.47,8.24,8.42,17.59c0,0,5.6,1.64,10.13-2.14,0,0-4.98-9.64-14.73-16.38l-3.82.93Z"/>
      <path class="cls-18" d="m158.61,205.5s-7.4-6.93-8.42-17.59c0,0,7.54,8.15,8.42,17.59Z"/>
    </g>
    <circle class="cls-18" cx="115.94" cy="211.59" r="2.93"/>
    <circle class="cls-18" cx="99.11" cy="224.91" r="3.9"/>
    <circle class="cls-18" cx="98.14" cy="205.73" r="2.93"/>
    <circle class="cls-18" cx="139.14" cy="179.09" r="3.34"/>
    <circle class="cls-18" cx="157.75" cy="174.03" r="2.77"/>
  </g>
  <g>
    <g>
      <path class="cls-16" d="m349.18,133.09s4.39,10.61,13.07,15.52c0,0-1.15,6-7.09,8.66,0,0-6.98-8.85-8.77-20.97l2.79-3.21Z"/>
      <path class="cls-18" d="m362.26,148.6s-3.14-9.97-13.07-15.52c0,0,4.26,10.63,13.07,15.52Z"/>
    </g>
    <g>
      <path class="cls-18" d="m374.24,117.97c-.24-1.27-6.71-1.1-14.46.37-7.74,1.47-13.82,3.7-13.58,4.97s6.71,1.1,14.46-.37,13.82-3.7,13.58-4.97Z"/>
      <path class="cls-16" d="m374.24,117.97l-1.59-8.35c-.24-1.27-6.71-1.1-14.46.37-7.74,1.47-13.82,3.7-13.58,4.97l1.59,8.35c-.24-1.27,5.84-3.49,13.58-4.97,7.74-1.47,14.21-1.64,14.46-.37Z"/>
    </g>
    <g>
      <path class="cls-16" d="m339.9,112.66s-10.71,3.01-16.48,10.42c0,0-5.61-1.58-7.44-7.2,0,0,9.34-5.51,21.18-6.03l2.74,2.82Z"/>
      <path class="cls-18" d="m323.42,123.08s9.95-1.93,16.48-10.42c0,0-10.72,2.89-16.48,10.42Z"/>
    </g>
    <circle class="cls-18" cx="375.33" cy="130.26" r="2.93"/>
    <circle class="cls-18" cx="338.17" cy="140.09" r="3.9"/>
    <circle class="cls-18" cx="389.05" cy="137.19" r="2.93"/>
    <circle class="cls-18" cx="376.78" cy="143.99" r="3.34"/>
    <circle class="cls-18" cx="365.03" cy="158.63" r="2.77"/>
  </g>
</svg>