<svg width="215" height="69" viewBox="0 0 215 69" fill="none" xmlns="http://www.w3.org/2000/svg">
<path d="M21.372 45.176L9.052 21.46L5.18 41.788C4.94533 43.02 5.41467 43.856 6.588 44.296L7.336 44.56L7.292 45H0.912L1 44.56L1.968 44.208C2.55467 43.9733 3.00933 43.68 3.332 43.328C3.684 42.9467 3.91867 42.4333 4.036 41.788L8.26 19.48L7.732 18.38C7.35067 17.588 6.764 16.972 5.972 16.532L5.84 16.4L5.928 15.96H12.704L24.056 37.344L27.532 18.952C27.7373 17.8373 27.312 17.0747 26.256 16.664L25.552 16.4L25.64 15.96H31.624L31.58 16.4L30.656 16.708C30.0987 16.9133 29.644 17.2067 29.292 17.588C28.9693 17.94 28.7493 18.424 28.632 19.04L23.704 45.176H21.372ZM114.933 45.792C112.175 45.792 109.785 45.2933 107.761 44.296C105.737 43.2693 104.167 41.8027 103.053 39.896C101.967 37.96 101.425 35.628 101.425 32.9C101.425 30.4653 101.835 28.1773 102.657 26.036C103.507 23.8947 104.695 22.0173 106.221 20.404C107.775 18.7613 109.594 17.4853 111.677 16.576C113.789 15.6373 116.106 15.168 118.629 15.168C120.125 15.168 121.533 15.3293 122.853 15.652C124.202 15.9747 125.566 16.5173 126.945 17.28L125.889 24.056H125.449L123.953 19.392C123.571 18.1307 122.97 17.2653 122.149 16.796C121.357 16.2973 120.301 16.048 118.981 16.048C116.722 16.048 114.742 16.7667 113.041 18.204C111.369 19.612 110.063 21.592 109.125 24.144C108.186 26.6667 107.717 29.6 107.717 32.944C107.717 36.6107 108.421 39.5293 109.829 41.7C111.266 43.8413 113.305 44.912 115.945 44.912C117.089 44.912 118.013 44.692 118.717 44.252C119.45 43.812 120.095 43.1373 120.653 42.228L123.909 36.948H124.349L123.293 43.636C122.149 44.2813 120.917 44.7947 119.597 45.176C118.306 45.5867 116.751 45.792 114.933 45.792Z" fill="#BA540B"/>
<path d="M34.572 45.66C33.5747 45.66 32.7093 45.3667 31.976 44.78C31.272 44.164 30.92 43.2547 30.92 42.052C30.92 41.3773 30.9933 40.644 31.14 39.852C31.2867 39.06 31.448 38.2827 31.624 37.52L33.56 28.852C33.824 27.708 33.428 26.872 32.372 26.344L31.536 25.992L31.58 25.508L39.896 23.132L40.292 23.484L37.212 36.948C37.036 37.6813 36.8893 38.3413 36.772 38.928C36.6547 39.5147 36.596 40.0573 36.596 40.556C36.596 41.2013 36.7427 41.6707 37.036 41.964C37.3293 42.228 37.7107 42.36 38.18 42.36C38.8547 42.36 39.6027 42.1253 40.424 41.656C41.2453 41.1573 42.1987 40.3947 43.284 39.368C43.3133 39.192 43.3573 39.0013 43.416 38.796L44.912 31.712C45.1467 30.568 45.3667 29.424 45.572 28.28C45.8067 27.1067 46.0267 25.9333 46.232 24.76L51.776 23.132L52.26 23.528L48.784 39.5C48.5493 40.5267 48.432 41.3333 48.432 41.92C48.432 42.536 48.696 42.844 49.224 42.844C49.6347 42.844 50.0747 42.6827 50.544 42.36C51.0133 42.008 51.5853 41.4947 52.26 40.82L52.788 41.348C52.0547 42.4333 51.116 43.4307 49.972 44.34C48.8573 45.22 47.5813 45.66 46.144 45.66C45.2347 45.66 44.472 45.352 43.856 44.736C43.2693 44.0907 42.976 43.1813 42.976 42.008C42.976 41.568 43.0053 41.1427 43.064 40.732C41.5387 42.2573 40.0573 43.46 38.62 44.34C37.212 45.22 35.8627 45.66 34.572 45.66ZM59.2423 45.66C58.3329 45.66 57.5703 45.4253 56.9543 44.956C56.3676 44.4573 56.0743 43.7387 56.0743 42.8C56.0743 42.2133 56.1329 41.5827 56.2503 40.908C56.3676 40.204 56.4996 39.456 56.6463 38.664L59.6823 24.76H56.0303L56.1623 24.232L57.7463 24.056C58.5676 23.968 59.2863 23.7627 59.9023 23.44C60.5183 23.1173 61.1049 22.6627 61.6623 22.076L65.8863 17.808H66.5463L65.3143 23.836H70.1103L69.8903 24.76H65.0943L62.0583 39.412C61.9409 39.9693 61.8529 40.4533 61.7943 40.864C61.7356 41.2453 61.7063 41.568 61.7063 41.832C61.7063 42.1253 61.7943 42.36 61.9703 42.536C62.1463 42.712 62.3369 42.8 62.5423 42.8C62.9529 42.8 63.3929 42.6387 63.8623 42.316C64.3316 41.964 64.9183 41.4507 65.6223 40.776L66.1503 41.216C65.4169 42.3013 64.4636 43.3133 63.2903 44.252C62.1169 45.1907 60.7676 45.66 59.2423 45.66ZM70.0553 45.308L69.6153 45L72.9593 28.896C73.1059 28.1333 73.0619 27.576 72.8273 27.224C72.5926 26.8427 72.1966 26.5347 71.6393 26.3L70.9793 25.992L71.0673 25.552L78.7233 23.132L79.1633 23.528L77.9753 30.788C78.5913 29.38 79.3099 28.104 80.1313 26.96C80.9526 25.816 81.8179 24.9067 82.7273 24.232C83.6366 23.528 84.5459 23.176 85.4553 23.176C86.3646 23.176 87.0979 23.4253 87.6553 23.924C88.2126 24.3933 88.4913 25.024 88.4913 25.816C88.4913 26.6373 88.2419 27.312 87.7433 27.84C87.2739 28.368 86.6286 28.632 85.8073 28.632C85.1619 28.632 84.5459 28.4707 83.9593 28.148C83.3726 27.796 82.8006 27.2973 82.2433 26.652C81.2166 27.4147 80.3366 28.412 79.6033 29.644C78.8699 30.8467 78.1953 32.1667 77.5793 33.604L77.1393 35.628C76.8166 37.1827 76.5086 38.7373 76.2153 40.292C75.9219 41.8467 75.6286 43.416 75.3353 45L70.0553 45.308ZM96.3136 20.712C95.4923 20.712 94.7736 20.448 94.1576 19.92C93.571 19.3627 93.2776 18.6293 93.2776 17.72C93.2776 16.6933 93.6296 15.8573 94.3336 15.212C95.067 14.5373 95.8883 14.2 96.7976 14.2C97.6776 14.2 98.3963 14.4787 98.9536 15.036C99.511 15.5933 99.7896 16.312 99.7896 17.192C99.7896 18.1893 99.4376 19.0253 98.7336 19.7C98.0296 20.3747 97.223 20.712 96.3136 20.712ZM92.2216 45.66C91.3123 45.66 90.5643 45.4253 89.9776 44.956C89.391 44.4867 89.0976 43.7973 89.0976 42.888C89.0976 42.36 89.1563 41.7293 89.2736 40.996C89.391 40.2627 89.523 39.5293 89.6696 38.796L91.7376 28.896C92.0016 27.6933 91.5763 26.8427 90.4616 26.344L89.7576 25.992L89.8016 25.508L98.0736 23.132L98.5136 23.528L95.0816 39.456C94.9643 39.984 94.8763 40.4387 94.8176 40.82C94.759 41.172 94.7296 41.524 94.7296 41.876C94.7296 42.5213 95.023 42.844 95.6096 42.844C96.0496 42.844 96.4896 42.712 96.9296 42.448C97.3696 42.1547 97.927 41.6853 98.6016 41.04L98.9976 41.436C98.2643 42.5213 97.3256 43.504 96.1816 44.384C95.067 45.2347 93.747 45.66 92.2216 45.66ZM127.719 45.308L127.279 45L130.623 28.896C130.77 28.1333 130.726 27.576 130.491 27.224C130.257 26.8427 129.861 26.5347 129.303 26.3L128.643 25.992L128.731 25.552L136.387 23.132L136.827 23.528L135.639 30.788C136.255 29.38 136.974 28.104 137.795 26.96C138.617 25.816 139.482 24.9067 140.391 24.232C141.301 23.528 142.21 23.176 143.119 23.176C144.029 23.176 144.762 23.4253 145.319 23.924C145.877 24.3933 146.155 25.024 146.155 25.816C146.155 26.6373 145.906 27.312 145.407 27.84C144.938 28.368 144.293 28.632 143.471 28.632C142.826 28.632 142.21 28.4707 141.623 28.148C141.037 27.796 140.465 27.2973 139.907 26.652C138.881 27.4147 138.001 28.412 137.267 29.644C136.534 30.8467 135.859 32.1667 135.243 33.604L134.803 35.628C134.481 37.1827 134.173 38.7373 133.879 40.292C133.586 41.8467 133.293 43.416 132.999 45L127.719 45.308ZM148.929 45.66C148.108 45.66 147.331 45.4693 146.597 45.088C145.864 44.7067 145.263 44.076 144.793 43.196C144.353 42.316 144.133 41.1573 144.133 39.72C144.133 38.1653 144.441 36.6107 145.057 35.056C145.673 33.472 146.495 31.976 147.521 30.568C148.548 29.1307 149.692 27.8693 150.953 26.784C152.215 25.6693 153.52 24.7893 154.869 24.144C156.219 23.4987 157.495 23.176 158.697 23.176C159.284 23.176 159.827 23.2933 160.325 23.528C160.853 23.7333 161.352 24.0267 161.821 24.408L165.385 23.044L165.737 23.264L161.909 40.116C161.704 40.9373 161.601 41.612 161.601 42.14C161.601 42.756 161.88 43.064 162.437 43.064C162.848 43.064 163.317 42.8733 163.845 42.492C164.403 42.1107 165.033 41.5973 165.737 40.952L166.089 41.304C165.649 42.008 165.092 42.6973 164.417 43.372C163.772 44.0173 163.039 44.56 162.217 45C161.425 45.44 160.575 45.66 159.665 45.66C158.668 45.66 157.861 45.3667 157.245 44.78C156.629 44.164 156.321 43.2253 156.321 41.964C156.321 41.5533 156.336 41.1573 156.365 40.776C155.192 42.096 153.945 43.24 152.625 44.208C151.335 45.176 150.103 45.66 148.929 45.66ZM149.325 37.74C149.325 39.2947 149.575 40.424 150.073 41.128C150.601 41.8027 151.291 42.14 152.141 42.14C152.845 42.14 153.549 41.92 154.253 41.48C154.957 41.04 155.72 40.4093 156.541 39.588C156.6 39.236 156.673 38.8693 156.761 38.488L159.533 25.816C159.152 25.3467 158.697 25.024 158.169 24.848C157.641 24.672 157.172 24.584 156.761 24.584C155.5 24.584 154.18 25.332 152.801 26.828C151.716 28.0307 150.865 29.6147 150.249 31.58C149.633 33.5453 149.325 35.5987 149.325 37.74ZM164.707 55.56C163.475 55.56 162.361 55.2813 161.363 54.724C160.366 54.1667 159.867 53.3747 159.867 52.348C159.867 51.5853 160.117 50.9987 160.615 50.588C161.114 50.1773 161.701 49.972 162.375 49.972C163.05 49.972 163.681 50.148 164.267 50.5C164.825 50.852 165.323 51.468 165.763 52.348L166.203 53.448C166.379 53.7707 166.585 53.9467 166.82 53.976C167.054 54.0347 167.274 53.888 167.48 53.536C167.626 53.272 167.758 52.964 167.876 52.612C167.993 52.2893 168.14 51.8787 168.316 51.38C168.726 50.3827 169.078 49.1653 169.372 47.728C169.694 46.32 169.988 44.7507 170.252 43.02C170.721 40.1453 171.176 37.1973 171.616 34.176C172.056 31.1547 172.51 27.972 172.98 24.628H169.416L169.504 24.232L171.22 24.056C171.924 23.968 172.452 23.7333 172.804 23.352C173.156 22.9707 173.434 22.4133 173.64 21.68C174.432 19.128 175.708 17.1627 177.468 15.784C179.228 14.4053 181.398 13.716 183.98 13.716C185.446 13.716 186.634 14.0387 187.544 14.684C188.453 15.3 188.907 16.092 188.907 17.06C188.907 17.852 188.658 18.4827 188.16 18.952C187.661 19.4213 187.06 19.656 186.356 19.656C184.977 19.656 183.833 18.732 182.924 16.884L182.748 16.18C182.484 15.564 182.176 15.2707 181.824 15.3C181.501 15.3 181.222 15.52 180.988 15.96C180.489 16.664 180.034 17.6467 179.623 18.908C179.213 20.1693 178.846 21.812 178.524 23.836H183.892L183.672 24.76L178.392 24.716C177.922 27.8253 177.453 30.9493 176.984 34.088C176.544 37.1973 176.06 40.1893 175.532 43.064C175.121 45.2347 174.578 47.112 173.904 48.696C173.258 50.3093 172.378 51.6733 171.264 52.788C170.354 53.6973 169.328 54.3867 168.184 54.856C167.069 55.3253 165.91 55.56 164.707 55.56ZM187.633 45.66C186.724 45.66 185.961 45.4253 185.345 44.956C184.758 44.4573 184.465 43.7387 184.465 42.8C184.465 42.2133 184.524 41.5827 184.641 40.908C184.758 40.204 184.89 39.456 185.037 38.664L188.073 24.76H184.421L184.553 24.232L186.137 24.056C186.958 23.968 187.677 23.7627 188.293 23.44C188.909 23.1173 189.496 22.6627 190.053 22.076L194.277 17.808H194.937L193.705 23.836H198.501L198.281 24.76H193.485L190.449 39.412C190.332 39.9693 190.244 40.4533 190.185 40.864C190.126 41.2453 190.097 41.568 190.097 41.832C190.097 42.1253 190.185 42.36 190.361 42.536C190.537 42.712 190.728 42.8 190.933 42.8C191.344 42.8 191.784 42.6387 192.253 42.316C192.722 41.964 193.309 41.4507 194.013 40.776L194.541 41.216C193.808 42.3013 192.854 43.3133 191.681 44.252C190.508 45.1907 189.158 45.66 187.633 45.66Z" fill="black"/>
<circle cx="96.5" cy="17.5" r="3.5" fill="#BA540B"/>
</svg>
